<svg xmlns="http://www.w3.org/2000/svg" version="1.1" xmlns:xlink="http://www.w3.org/1999/xlink" xmlns:svgjs="http://svgjs.com/svgjs" width="1920" height="9000" preserveAspectRatio="none" viewBox="0 0 1920 9000"><g mask="url(&quot;#SvgjsMask1038&quot;)" fill="none"><rect width="1920" height="9000" x="0" y="0" fill="rgba(51, 51, 51, 1)"></rect><path d="M143.12 92.44L218.46 135.94L218.46 222.94L143.12 266.44L67.77 222.94L67.77 135.94zM143.12 353.44L218.46 396.94L218.46 483.94L143.12 527.44L67.77 483.94L67.77 396.94zM143.12 614.44L218.46 657.94L218.46 744.94L143.12 788.44L67.77 744.94L67.77 657.94zM143.12 2441.44L218.46 2484.94L218.46 2571.94L143.12 2615.44L67.77 2571.94L67.77 2484.94zM143.12 2702.44L218.46 2745.94L218.46 2832.94L143.12 2876.44L67.77 2832.94L67.77 2745.94zM143.12 2963.44L218.46 3006.94L218.46 3093.94L143.12 3137.44L67.77 3093.94L67.77 3006.94zM143.12 3485.44L218.46 3528.94L218.46 3615.94L143.12 3659.44L67.77 3615.94L67.77 3528.94zM67.77 4137.94L143.12 4181.44L143.12 4268.44L67.77 4311.94L-7.58 4268.44L-7.58 4181.44zM67.77 7008.94L143.12 7052.44L143.12 7139.44L67.77 7182.94L-7.58 7139.44L-7.58 7052.44zM143.12 7139.44L218.46 7182.94L218.46 7269.94L143.12 7313.44L67.77 7269.94L67.77 7182.94zM67.77 7530.94L143.12 7574.44L143.12 7661.44L67.77 7704.94L-7.58 7661.44L-7.58 7574.44zM143.12 8444.44L218.46 8487.94L218.46 8574.94L143.12 8618.44L67.77 8574.94L67.77 8487.94zM293.81 92.44L369.16 135.94L369.16 222.94L293.81 266.44L218.46 222.94L218.46 135.94zM293.81 353.44L369.16 396.94L369.16 483.94L293.81 527.44L218.46 483.94L218.46 396.94zM293.81 875.44L369.16 918.94L369.16 1005.94L293.81 1049.44L218.46 1005.94L218.46 918.94zM218.46 2049.94L293.81 2093.44L293.81 2180.44L218.46 2223.94L143.12 2180.44L143.12 2093.44zM218.46 2571.94L293.81 2615.44L293.81 2702.44L218.46 2745.94L143.12 2702.44L143.12 2615.44zM293.81 2702.44L369.16 2745.94L369.16 2832.94L293.81 2876.44L218.46 2832.94L218.46 2745.94zM218.46 3093.94L293.81 3137.44L293.81 3224.44L218.46 3267.94L143.12 3224.44L143.12 3137.44zM293.81 3224.44L369.16 3267.94L369.16 3354.94L293.81 3398.44L218.46 3354.94L218.46 3267.94zM293.81 3485.44L369.16 3528.94L369.16 3615.94L293.81 3659.44L218.46 3615.94L218.46 3528.94zM218.46 6225.94L293.81 6269.44L293.81 6356.44L218.46 6399.94L143.12 6356.44L143.12 6269.44zM218.46 7269.94L293.81 7313.44L293.81 7400.44L218.46 7443.94L143.12 7400.44L143.12 7313.44zM218.46 7530.94L293.81 7574.44L293.81 7661.44L218.46 7704.94L143.12 7661.44L143.12 7574.44zM218.46 8574.94L293.81 8618.44L293.81 8705.44L218.46 8748.94L143.12 8705.44L143.12 8618.44zM369.16 -38.06L444.5 5.44L444.5 92.44L369.16 135.94L293.81 92.44L293.81 5.44zM369.16 222.94L444.5 266.44L444.5 353.44L369.16 396.94L293.81 353.44L293.81 266.44zM444.5 353.44L519.85 396.94L519.85 483.94L444.5 527.44L369.16 483.94L369.16 396.94zM444.5 614.44L519.85 657.94L519.85 744.94L444.5 788.44L369.16 744.94L369.16 657.94zM444.5 1397.44L519.85 1440.94L519.85 1527.94L444.5 1571.44L369.16 1527.94L369.16 1440.94zM444.5 2180.44L519.85 2223.94L519.85 2310.94L444.5 2354.44L369.16 2310.94L369.16 2223.94zM444.5 2963.44L519.85 3006.94L519.85 3093.94L444.5 3137.44L369.16 3093.94L369.16 3006.94zM444.5 3224.44L519.85 3267.94L519.85 3354.94L444.5 3398.44L369.16 3354.94L369.16 3267.94zM444.5 3485.44L519.85 3528.94L519.85 3615.94L444.5 3659.44L369.16 3615.94L369.16 3528.94zM369.16 4137.94L444.5 4181.44L444.5 4268.44L369.16 4311.94L293.81 4268.44L293.81 4181.44zM369.16 4398.94L444.5 4442.44L444.5 4529.44L369.16 4572.94L293.81 4529.44L293.81 4442.44zM444.5 6095.44L519.85 6138.94L519.85 6225.94L444.5 6269.44L369.16 6225.94L369.16 6138.94zM369.16 7791.94L444.5 7835.44L444.5 7922.44L369.16 7965.94L293.81 7922.44L293.81 7835.44zM595.19 92.44L670.54 135.94L670.54 222.94L595.19 266.44L519.85 222.94L519.85 135.94zM595.19 353.44L670.54 396.94L670.54 483.94L595.19 527.44L519.85 483.94L519.85 396.94zM595.19 1658.44L670.54 1701.94L670.54 1788.94L595.19 1832.44L519.85 1788.94L519.85 1701.94zM595.19 1919.44L670.54 1962.94L670.54 2049.94L595.19 2093.44L519.85 2049.94L519.85 1962.94zM519.85 2049.94L595.19 2093.44L595.19 2180.44L519.85 2223.94L444.5 2180.44L444.5 2093.44zM519.85 2310.94L595.19 2354.44L595.19 2441.44L519.85 2484.94L444.5 2441.44L444.5 2354.44zM595.19 2963.44L670.54 3006.94L670.54 3093.94L595.19 3137.44L519.85 3093.94L519.85 3006.94zM519.85 5703.94L595.19 5747.44L595.19 5834.44L519.85 5877.94L444.5 5834.44L444.5 5747.44zM519.85 7269.94L595.19 7313.44L595.19 7400.44L519.85 7443.94L444.5 7400.44L444.5 7313.44zM595.19 7661.44L670.54 7704.94L670.54 7791.94L595.19 7835.44L519.85 7791.94L519.85 7704.94zM595.19 8966.44L670.54 9009.94L670.54 9096.94L595.19 9140.44L519.85 9096.94L519.85 9009.94zM670.54 1527.94L745.89 1571.44L745.89 1658.44L670.54 1701.94L595.19 1658.44L595.19 1571.44zM670.54 2310.94L745.89 2354.44L745.89 2441.44L670.54 2484.94L595.19 2441.44L595.19 2354.44zM745.89 3485.44L821.23 3528.94L821.23 3615.94L745.89 3659.44L670.54 3615.94L670.54 3528.94zM745.89 3746.44L821.23 3789.94L821.23 3876.94L745.89 3920.44L670.54 3876.94L670.54 3789.94zM670.54 3876.94L745.89 3920.44L745.89 4007.44L670.54 4050.94L595.19 4007.44L595.19 3920.44zM745.89 4790.44L821.23 4833.94L821.23 4920.94L745.89 4964.44L670.54 4920.94L670.54 4833.94zM670.54 4920.94L745.89 4964.44L745.89 5051.44L670.54 5094.94L595.19 5051.44L595.19 4964.44zM745.89 5051.44L821.23 5094.94L821.23 5181.94L745.89 5225.44L670.54 5181.94L670.54 5094.94zM670.54 5703.94L745.89 5747.44L745.89 5834.44L670.54 5877.94L595.19 5834.44L595.19 5747.44zM745.89 7139.44L821.23 7182.94L821.23 7269.94L745.89 7313.44L670.54 7269.94L670.54 7182.94zM670.54 7269.94L745.89 7313.44L745.89 7400.44L670.54 7443.94L595.19 7400.44L595.19 7313.44zM745.89 7922.44L821.23 7965.94L821.23 8052.94L745.89 8096.44L670.54 8052.94L670.54 7965.94zM670.54 8835.94L745.89 8879.44L745.89 8966.44L670.54 9009.94L595.19 8966.44L595.19 8879.44zM896.58 92.44L971.93 135.94L971.93 222.94L896.58 266.44L821.23 222.94L821.23 135.94zM896.58 353.44L971.93 396.94L971.93 483.94L896.58 527.44L821.23 483.94L821.23 396.94zM821.23 1005.94L896.58 1049.44L896.58 1136.44L821.23 1179.94L745.89 1136.44L745.89 1049.44zM821.23 1527.94L896.58 1571.44L896.58 1658.44L821.23 1701.94L745.89 1658.44L745.89 1571.44zM821.23 1788.94L896.58 1832.44L896.58 1919.44L821.23 1962.94L745.89 1919.44L745.89 1832.44zM821.23 2049.94L896.58 2093.44L896.58 2180.44L821.23 2223.94L745.89 2180.44L745.89 2093.44zM821.23 3354.94L896.58 3398.44L896.58 3485.44L821.23 3528.94L745.89 3485.44L745.89 3398.44zM821.23 4920.94L896.58 4964.44L896.58 5051.44L821.23 5094.94L745.89 5051.44L745.89 4964.44zM821.23 5703.94L896.58 5747.44L896.58 5834.44L821.23 5877.94L745.89 5834.44L745.89 5747.44zM896.58 6878.44L971.93 6921.94L971.93 7008.94L896.58 7052.44L821.23 7008.94L821.23 6921.94zM821.23 7008.94L896.58 7052.44L896.58 7139.44L821.23 7182.94L745.89 7139.44L745.89 7052.44zM896.58 7139.44L971.93 7182.94L971.93 7269.94L896.58 7313.44L821.23 7269.94L821.23 7182.94zM821.23 8313.94L896.58 8357.44L896.58 8444.44L821.23 8487.94L745.89 8444.44L745.89 8357.44zM821.23 8574.94L896.58 8618.44L896.58 8705.44L821.23 8748.94L745.89 8705.44L745.89 8618.44zM971.93 744.94L1047.27 788.44L1047.27 875.44L971.93 918.94L896.58 875.44L896.58 788.44zM971.93 1005.94L1047.27 1049.44L1047.27 1136.44L971.93 1179.94L896.58 1136.44L896.58 1049.44zM971.93 1266.94L1047.27 1310.44L1047.27 1397.44L971.93 1440.94L896.58 1397.44L896.58 1310.44zM971.93 2310.94L1047.27 2354.44L1047.27 2441.44L971.93 2484.94L896.58 2441.44L896.58 2354.44zM1047.27 3224.44L1122.62 3267.94L1122.62 3354.94L1047.27 3398.44L971.93 3354.94L971.93 3267.94zM971.93 3354.94L1047.27 3398.44L1047.27 3485.44L971.93 3528.94L896.58 3485.44L896.58 3398.44zM1047.27 3746.44L1122.62 3789.94L1122.62 3876.94L1047.27 3920.44L971.93 3876.94L971.93 3789.94zM1047.27 4268.44L1122.62 4311.94L1122.62 4398.94L1047.27 4442.44L971.93 4398.94L971.93 4311.94zM971.93 4659.94L1047.27 4703.44L1047.27 4790.44L971.93 4833.94L896.58 4790.44L896.58 4703.44zM971.93 4920.94L1047.27 4964.44L1047.27 5051.44L971.93 5094.94L896.58 5051.44L896.58 4964.44zM971.93 5181.94L1047.27 5225.44L1047.27 5312.44L971.93 5355.94L896.58 5312.44L896.58 5225.44zM1047.27 5312.44L1122.62 5355.94L1122.62 5442.94L1047.27 5486.44L971.93 5442.94L971.93 5355.94zM971.93 5442.94L1047.27 5486.44L1047.27 5573.44L971.93 5616.94L896.58 5573.44L896.58 5486.44zM1122.62 222.94L1197.97 266.44L1197.97 353.44L1122.62 396.94L1047.27 353.44L1047.27 266.44zM1122.62 744.94L1197.97 788.44L1197.97 875.44L1122.62 918.94L1047.27 875.44L1047.27 788.44zM1197.97 1136.44L1273.31 1179.94L1273.31 1266.94L1197.97 1310.44L1122.62 1266.94L1122.62 1179.94zM1122.62 1266.94L1197.97 1310.44L1197.97 1397.44L1122.62 1440.94L1047.27 1397.44L1047.27 1310.44zM1122.62 1788.94L1197.97 1832.44L1197.97 1919.44L1122.62 1962.94L1047.27 1919.44L1047.27 1832.44zM1122.62 2832.94L1197.97 2876.44L1197.97 2963.44L1122.62 3006.94L1047.27 2963.44L1047.27 2876.44zM1122.62 3093.94L1197.97 3137.44L1197.97 3224.44L1122.62 3267.94L1047.27 3224.44L1047.27 3137.44zM1122.62 3354.94L1197.97 3398.44L1197.97 3485.44L1122.62 3528.94L1047.27 3485.44L1047.27 3398.44zM1197.97 3746.44L1273.31 3789.94L1273.31 3876.94L1197.97 3920.44L1122.62 3876.94L1122.62 3789.94zM1197.97 4529.44L1273.31 4572.94L1273.31 4659.94L1197.97 4703.44L1122.62 4659.94L1122.62 4572.94zM1122.62 4920.94L1197.97 4964.44L1197.97 5051.44L1122.62 5094.94L1047.27 5051.44L1047.27 4964.44zM1197.97 5051.44L1273.31 5094.94L1273.31 5181.94L1197.97 5225.44L1122.62 5181.94L1122.62 5094.94zM1122.62 5442.94L1197.97 5486.44L1197.97 5573.44L1122.62 5616.94L1047.27 5573.44L1047.27 5486.44zM1197.97 7139.44L1273.31 7182.94L1273.31 7269.94L1197.97 7313.44L1122.62 7269.94L1122.62 7182.94zM1122.62 7791.94L1197.97 7835.44L1197.97 7922.44L1122.62 7965.94L1047.27 7922.44L1047.27 7835.44zM1122.62 8052.94L1197.97 8096.44L1197.97 8183.44L1122.62 8226.94L1047.27 8183.44L1047.27 8096.44zM1348.66 92.44L1424 135.94L1424 222.94L1348.66 266.44L1273.31 222.94L1273.31 135.94zM1348.66 353.44L1424 396.94L1424 483.94L1348.66 527.44L1273.31 483.94L1273.31 396.94zM1273.31 1266.94L1348.66 1310.44L1348.66 1397.44L1273.31 1440.94L1197.97 1397.44L1197.97 1310.44zM1348.66 1658.44L1424 1701.94L1424 1788.94L1348.66 1832.44L1273.31 1788.94L1273.31 1701.94zM1273.31 1788.94L1348.66 1832.44L1348.66 1919.44L1273.31 1962.94L1197.97 1919.44L1197.97 1832.44zM1348.66 2441.44L1424 2484.94L1424 2571.94L1348.66 2615.44L1273.31 2571.94L1273.31 2484.94zM1348.66 4007.44L1424 4050.94L1424 4137.94L1348.66 4181.44L1273.31 4137.94L1273.31 4050.94zM1273.31 4398.94L1348.66 4442.44L1348.66 4529.44L1273.31 4572.94L1197.97 4529.44L1197.97 4442.44zM1273.31 4659.94L1348.66 4703.44L1348.66 4790.44L1273.31 4833.94L1197.97 4790.44L1197.97 4703.44zM1348.66 6356.44L1424 6399.94L1424 6486.94L1348.66 6530.44L1273.31 6486.94L1273.31 6399.94zM1348.66 6617.44L1424 6660.94L1424 6747.94L1348.66 6791.44L1273.31 6747.94L1273.31 6660.94zM1273.31 8052.94L1348.66 8096.44L1348.66 8183.44L1273.31 8226.94L1197.97 8183.44L1197.97 8096.44zM1348.66 8444.44L1424 8487.94L1424 8574.94L1348.66 8618.44L1273.31 8574.94L1273.31 8487.94zM1273.31 8574.94L1348.66 8618.44L1348.66 8705.44L1273.31 8748.94L1197.97 8705.44L1197.97 8618.44zM1424 483.94L1499.35 527.44L1499.35 614.44L1424 657.94L1348.66 614.44L1348.66 527.44zM1424 744.94L1499.35 788.44L1499.35 875.44L1424 918.94L1348.66 875.44L1348.66 788.44zM1424 1266.94L1499.35 1310.44L1499.35 1397.44L1424 1440.94L1348.66 1397.44L1348.66 1310.44zM1424 4659.94L1499.35 4703.44L1499.35 4790.44L1424 4833.94L1348.66 4790.44L1348.66 4703.44zM1499.35 6878.44L1574.7 6921.94L1574.7 7008.94L1499.35 7052.44L1424 7008.94L1424 6921.94zM1650.04 92.44L1725.39 135.94L1725.39 222.94L1650.04 266.44L1574.7 222.94L1574.7 135.94zM1574.7 222.94L1650.04 266.44L1650.04 353.44L1574.7 396.94L1499.35 353.44L1499.35 266.44zM1574.7 1266.94L1650.04 1310.44L1650.04 1397.44L1574.7 1440.94L1499.35 1397.44L1499.35 1310.44zM1650.04 1397.44L1725.39 1440.94L1725.39 1527.94L1650.04 1571.44L1574.7 1527.94L1574.7 1440.94zM1650.04 1658.44L1725.39 1701.94L1725.39 1788.94L1650.04 1832.44L1574.7 1788.94L1574.7 1701.94zM1574.7 1788.94L1650.04 1832.44L1650.04 1919.44L1574.7 1962.94L1499.35 1919.44L1499.35 1832.44zM1574.7 2310.94L1650.04 2354.44L1650.04 2441.44L1574.7 2484.94L1499.35 2441.44L1499.35 2354.44zM1574.7 3093.94L1650.04 3137.44L1650.04 3224.44L1574.7 3267.94L1499.35 3224.44L1499.35 3137.44zM1650.04 3224.44L1725.39 3267.94L1725.39 3354.94L1650.04 3398.44L1574.7 3354.94L1574.7 3267.94zM1574.7 3354.94L1650.04 3398.44L1650.04 3485.44L1574.7 3528.94L1499.35 3485.44L1499.35 3398.44zM1574.7 3615.94L1650.04 3659.44L1650.04 3746.44L1574.7 3789.94L1499.35 3746.44L1499.35 3659.44zM1650.04 5573.44L1725.39 5616.94L1725.39 5703.94L1650.04 5747.44L1574.7 5703.94L1574.7 5616.94zM1574.7 5703.94L1650.04 5747.44L1650.04 5834.44L1574.7 5877.94L1499.35 5834.44L1499.35 5747.44zM1650.04 5834.44L1725.39 5877.94L1725.39 5964.94L1650.04 6008.44L1574.7 5964.94L1574.7 5877.94zM1650.04 6356.44L1725.39 6399.94L1725.39 6486.94L1650.04 6530.44L1574.7 6486.94L1574.7 6399.94zM1574.7 7791.94L1650.04 7835.44L1650.04 7922.44L1574.7 7965.94L1499.35 7922.44L1499.35 7835.44zM1800.74 4268.44L1876.08 4311.94L1876.08 4398.94L1800.74 4442.44L1725.39 4398.94L1725.39 4311.94zM1800.74 5834.44L1876.08 5877.94L1876.08 5964.94L1800.74 6008.44L1725.39 5964.94L1725.39 5877.94zM1725.39 6225.94L1800.74 6269.44L1800.74 6356.44L1725.39 6399.94L1650.04 6356.44L1650.04 6269.44zM1725.39 6486.94L1800.74 6530.44L1800.74 6617.44L1725.39 6660.94L1650.04 6617.44L1650.04 6530.44zM1725.39 6747.94L1800.74 6791.44L1800.74 6878.44L1725.39 6921.94L1650.04 6878.44L1650.04 6791.44zM1725.39 7791.94L1800.74 7835.44L1800.74 7922.44L1725.39 7965.94L1650.04 7922.44L1650.04 7835.44zM1800.74 8183.44L1876.08 8226.94L1876.08 8313.94L1800.74 8357.44L1725.39 8313.94L1725.39 8226.94zM1725.39 8313.94L1800.74 8357.44L1800.74 8444.44L1725.39 8487.94L1650.04 8444.44L1650.04 8357.44zM1725.39 8835.94L1800.74 8879.44L1800.74 8966.44L1725.39 9009.94L1650.04 8966.44L1650.04 8879.44zM1800.74 8966.44L1876.08 9009.94L1876.08 9096.94L1800.74 9140.44L1725.39 9096.94L1725.39 9009.94zM1951.43 92.44L2026.78 135.94L2026.78 222.94L1951.43 266.44L1876.08 222.94L1876.08 135.94zM1951.43 353.44L2026.78 396.94L2026.78 483.94L1951.43 527.44L1876.08 483.94L1876.08 396.94zM1951.43 1658.44L2026.78 1701.94L2026.78 1788.94L1951.43 1832.44L1876.08 1788.94L1876.08 1701.94zM1876.08 4398.94L1951.43 4442.44L1951.43 4529.44L1876.08 4572.94L1800.74 4529.44L1800.74 4442.44zM1951.43 5312.44L2026.78 5355.94L2026.78 5442.94L1951.43 5486.44L1876.08 5442.94L1876.08 5355.94zM1876.08 5964.94L1951.43 6008.44L1951.43 6095.44L1876.08 6138.94L1800.74 6095.44L1800.74 6008.44zM1951.43 7139.44L2026.78 7182.94L2026.78 7269.94L1951.43 7313.44L1876.08 7269.94L1876.08 7182.94zM1951.43 7661.44L2026.78 7704.94L2026.78 7791.94L1951.43 7835.44L1876.08 7791.94L1876.08 7704.94zM1876.08 8574.94L1951.43 8618.44L1951.43 8705.44L1876.08 8748.94L1800.74 8705.44L1800.74 8618.44z" stroke="rgba(68, 68, 68, 0.58)" stroke-width="2"></path><path d="M134.42 92.44 a8.7 8.7 0 1 0 17.4 0 a8.7 8.7 0 1 0 -17.4 0zM209.76 135.94 a8.7 8.7 0 1 0 17.4 0 a8.7 8.7 0 1 0 -17.4 0zM209.76 222.94 a8.7 8.7 0 1 0 17.4 0 a8.7 8.7 0 1 0 -17.4 0zM134.42 266.44 a8.7 8.7 0 1 0 17.4 0 a8.7 8.7 0 1 0 -17.4 0zM59.07 222.94 a8.7 8.7 0 1 0 17.4 0 a8.7 8.7 0 1 0 -17.4 0zM59.07 135.94 a8.7 8.7 0 1 0 17.4 0 a8.7 8.7 0 1 0 -17.4 0zM134.42 353.44 a8.7 8.7 0 1 0 17.4 0 a8.7 8.7 0 1 0 -17.4 0zM209.76 396.94 a8.7 8.7 0 1 0 17.4 0 a8.7 8.7 0 1 0 -17.4 0zM209.76 483.94 a8.7 8.7 0 1 0 17.4 0 a8.7 8.7 0 1 0 -17.4 0zM134.42 527.44 a8.7 8.7 0 1 0 17.4 0 a8.7 8.7 0 1 0 -17.4 0zM59.07 483.94 a8.7 8.7 0 1 0 17.4 0 a8.7 8.7 0 1 0 -17.4 0zM59.07 396.94 a8.7 8.7 0 1 0 17.4 0 a8.7 8.7 0 1 0 -17.4 0zM134.42 614.44 a8.7 8.7 0 1 0 17.4 0 a8.7 8.7 0 1 0 -17.4 0zM209.76 657.94 a8.7 8.7 0 1 0 17.4 0 a8.7 8.7 0 1 0 -17.4 0zM209.76 744.94 a8.7 8.7 0 1 0 17.4 0 a8.7 8.7 0 1 0 -17.4 0zM134.42 788.44 a8.7 8.7 0 1 0 17.4 0 a8.7 8.7 0 1 0 -17.4 0zM59.07 744.94 a8.7 8.7 0 1 0 17.4 0 a8.7 8.7 0 1 0 -17.4 0zM59.07 657.94 a8.7 8.7 0 1 0 17.4 0 a8.7 8.7 0 1 0 -17.4 0zM134.42 2441.44 a8.7 8.7 0 1 0 17.4 0 a8.7 8.7 0 1 0 -17.4 0zM209.76 2484.94 a8.7 8.7 0 1 0 17.4 0 a8.7 8.7 0 1 0 -17.4 0zM209.76 2571.94 a8.7 8.7 0 1 0 17.4 0 a8.7 8.7 0 1 0 -17.4 0zM134.42 2615.44 a8.7 8.7 0 1 0 17.4 0 a8.7 8.7 0 1 0 -17.4 0zM59.07 2571.94 a8.7 8.7 0 1 0 17.4 0 a8.7 8.7 0 1 0 -17.4 0zM59.07 2484.94 a8.7 8.7 0 1 0 17.4 0 a8.7 8.7 0 1 0 -17.4 0zM134.42 2702.44 a8.7 8.7 0 1 0 17.4 0 a8.7 8.7 0 1 0 -17.4 0zM209.76 2745.94 a8.7 8.7 0 1 0 17.4 0 a8.7 8.7 0 1 0 -17.4 0zM209.76 2832.94 a8.7 8.7 0 1 0 17.4 0 a8.7 8.7 0 1 0 -17.4 0zM134.42 2876.44 a8.7 8.7 0 1 0 17.4 0 a8.7 8.7 0 1 0 -17.4 0zM59.07 2832.94 a8.7 8.7 0 1 0 17.4 0 a8.7 8.7 0 1 0 -17.4 0zM59.07 2745.94 a8.7 8.7 0 1 0 17.4 0 a8.7 8.7 0 1 0 -17.4 0zM134.42 2963.44 a8.7 8.7 0 1 0 17.4 0 a8.7 8.7 0 1 0 -17.4 0zM209.76 3006.94 a8.7 8.7 0 1 0 17.4 0 a8.7 8.7 0 1 0 -17.4 0zM209.76 3093.94 a8.7 8.7 0 1 0 17.4 0 a8.7 8.7 0 1 0 -17.4 0zM134.42 3137.44 a8.7 8.7 0 1 0 17.4 0 a8.7 8.7 0 1 0 -17.4 0zM59.07 3093.94 a8.7 8.7 0 1 0 17.4 0 a8.7 8.7 0 1 0 -17.4 0zM59.07 3006.94 a8.7 8.7 0 1 0 17.4 0 a8.7 8.7 0 1 0 -17.4 0zM134.42 3485.44 a8.7 8.7 0 1 0 17.4 0 a8.7 8.7 0 1 0 -17.4 0zM209.76 3528.94 a8.7 8.7 0 1 0 17.4 0 a8.7 8.7 0 1 0 -17.4 0zM209.76 3615.94 a8.7 8.7 0 1 0 17.4 0 a8.7 8.7 0 1 0 -17.4 0zM134.42 3659.44 a8.7 8.7 0 1 0 17.4 0 a8.7 8.7 0 1 0 -17.4 0zM59.07 3615.94 a8.7 8.7 0 1 0 17.4 0 a8.7 8.7 0 1 0 -17.4 0zM59.07 3528.94 a8.7 8.7 0 1 0 17.4 0 a8.7 8.7 0 1 0 -17.4 0zM59.07 4137.94 a8.7 8.7 0 1 0 17.4 0 a8.7 8.7 0 1 0 -17.4 0zM134.42 4181.44 a8.7 8.7 0 1 0 17.4 0 a8.7 8.7 0 1 0 -17.4 0zM134.42 4268.44 a8.7 8.7 0 1 0 17.4 0 a8.7 8.7 0 1 0 -17.4 0zM59.07 4311.94 a8.7 8.7 0 1 0 17.4 0 a8.7 8.7 0 1 0 -17.4 0zM-16.28 4268.44 a8.7 8.7 0 1 0 17.4 0 a8.7 8.7 0 1 0 -17.4 0zM-16.28 4181.44 a8.7 8.7 0 1 0 17.4 0 a8.7 8.7 0 1 0 -17.4 0zM59.07 7008.94 a8.7 8.7 0 1 0 17.4 0 a8.7 8.7 0 1 0 -17.4 0zM134.42 7052.44 a8.7 8.7 0 1 0 17.4 0 a8.7 8.7 0 1 0 -17.4 0zM134.42 7139.44 a8.7 8.7 0 1 0 17.4 0 a8.7 8.7 0 1 0 -17.4 0zM59.07 7182.94 a8.7 8.7 0 1 0 17.4 0 a8.7 8.7 0 1 0 -17.4 0zM-16.28 7139.44 a8.7 8.7 0 1 0 17.4 0 a8.7 8.7 0 1 0 -17.4 0zM-16.28 7052.44 a8.7 8.7 0 1 0 17.4 0 a8.7 8.7 0 1 0 -17.4 0zM209.76 7182.94 a8.7 8.7 0 1 0 17.4 0 a8.7 8.7 0 1 0 -17.4 0zM209.76 7269.94 a8.7 8.7 0 1 0 17.4 0 a8.7 8.7 0 1 0 -17.4 0zM134.42 7313.44 a8.7 8.7 0 1 0 17.4 0 a8.7 8.7 0 1 0 -17.4 0zM59.07 7269.94 a8.7 8.7 0 1 0 17.4 0 a8.7 8.7 0 1 0 -17.4 0zM59.07 7530.94 a8.7 8.7 0 1 0 17.4 0 a8.7 8.7 0 1 0 -17.4 0zM134.42 7574.44 a8.7 8.7 0 1 0 17.4 0 a8.7 8.7 0 1 0 -17.4 0zM134.42 7661.44 a8.7 8.7 0 1 0 17.4 0 a8.7 8.7 0 1 0 -17.4 0zM59.07 7704.94 a8.7 8.7 0 1 0 17.4 0 a8.7 8.7 0 1 0 -17.4 0zM-16.28 7661.44 a8.7 8.7 0 1 0 17.4 0 a8.7 8.7 0 1 0 -17.4 0zM-16.28 7574.44 a8.7 8.7 0 1 0 17.4 0 a8.7 8.7 0 1 0 -17.4 0zM134.42 8444.44 a8.7 8.7 0 1 0 17.4 0 a8.7 8.7 0 1 0 -17.4 0zM209.76 8487.94 a8.7 8.7 0 1 0 17.4 0 a8.7 8.7 0 1 0 -17.4 0zM209.76 8574.94 a8.7 8.7 0 1 0 17.4 0 a8.7 8.7 0 1 0 -17.4 0zM134.42 8618.44 a8.7 8.7 0 1 0 17.4 0 a8.7 8.7 0 1 0 -17.4 0zM59.07 8574.94 a8.7 8.7 0 1 0 17.4 0 a8.7 8.7 0 1 0 -17.4 0zM59.07 8487.94 a8.7 8.7 0 1 0 17.4 0 a8.7 8.7 0 1 0 -17.4 0zM285.11 92.44 a8.7 8.7 0 1 0 17.4 0 a8.7 8.7 0 1 0 -17.4 0zM360.46 135.94 a8.7 8.7 0 1 0 17.4 0 a8.7 8.7 0 1 0 -17.4 0zM360.46 222.94 a8.7 8.7 0 1 0 17.4 0 a8.7 8.7 0 1 0 -17.4 0zM285.11 266.44 a8.7 8.7 0 1 0 17.4 0 a8.7 8.7 0 1 0 -17.4 0zM285.11 353.44 a8.7 8.7 0 1 0 17.4 0 a8.7 8.7 0 1 0 -17.4 0zM360.46 396.94 a8.7 8.7 0 1 0 17.4 0 a8.7 8.7 0 1 0 -17.4 0zM360.46 483.94 a8.7 8.7 0 1 0 17.4 0 a8.7 8.7 0 1 0 -17.4 0zM285.11 527.44 a8.7 8.7 0 1 0 17.4 0 a8.7 8.7 0 1 0 -17.4 0zM285.11 875.44 a8.7 8.7 0 1 0 17.4 0 a8.7 8.7 0 1 0 -17.4 0zM360.46 918.94 a8.7 8.7 0 1 0 17.4 0 a8.7 8.7 0 1 0 -17.4 0zM360.46 1005.94 a8.7 8.7 0 1 0 17.4 0 a8.7 8.7 0 1 0 -17.4 0zM285.11 1049.44 a8.7 8.7 0 1 0 17.4 0 a8.7 8.7 0 1 0 -17.4 0zM209.76 1005.94 a8.7 8.7 0 1 0 17.4 0 a8.7 8.7 0 1 0 -17.4 0zM209.76 918.94 a8.7 8.7 0 1 0 17.4 0 a8.7 8.7 0 1 0 -17.4 0zM209.76 2049.94 a8.7 8.7 0 1 0 17.4 0 a8.7 8.7 0 1 0 -17.4 0zM285.11 2093.44 a8.7 8.7 0 1 0 17.4 0 a8.7 8.7 0 1 0 -17.4 0zM285.11 2180.44 a8.7 8.7 0 1 0 17.4 0 a8.7 8.7 0 1 0 -17.4 0zM209.76 2223.94 a8.7 8.7 0 1 0 17.4 0 a8.7 8.7 0 1 0 -17.4 0zM134.42 2180.44 a8.7 8.7 0 1 0 17.4 0 a8.7 8.7 0 1 0 -17.4 0zM134.42 2093.44 a8.7 8.7 0 1 0 17.4 0 a8.7 8.7 0 1 0 -17.4 0zM285.11 2615.44 a8.7 8.7 0 1 0 17.4 0 a8.7 8.7 0 1 0 -17.4 0zM285.11 2702.44 a8.7 8.7 0 1 0 17.4 0 a8.7 8.7 0 1 0 -17.4 0zM360.46 2745.94 a8.7 8.7 0 1 0 17.4 0 a8.7 8.7 0 1 0 -17.4 0zM360.46 2832.94 a8.7 8.7 0 1 0 17.4 0 a8.7 8.7 0 1 0 -17.4 0zM285.11 2876.44 a8.7 8.7 0 1 0 17.4 0 a8.7 8.7 0 1 0 -17.4 0zM285.11 3137.44 a8.7 8.7 0 1 0 17.4 0 a8.7 8.7 0 1 0 -17.4 0zM285.11 3224.44 a8.7 8.7 0 1 0 17.4 0 a8.7 8.7 0 1 0 -17.4 0zM209.76 3267.94 a8.7 8.7 0 1 0 17.4 0 a8.7 8.7 0 1 0 -17.4 0zM134.42 3224.44 a8.7 8.7 0 1 0 17.4 0 a8.7 8.7 0 1 0 -17.4 0zM360.46 3267.94 a8.7 8.7 0 1 0 17.4 0 a8.7 8.7 0 1 0 -17.4 0zM360.46 3354.94 a8.7 8.7 0 1 0 17.4 0 a8.7 8.7 0 1 0 -17.4 0zM285.11 3398.44 a8.7 8.7 0 1 0 17.4 0 a8.7 8.7 0 1 0 -17.4 0zM209.76 3354.94 a8.7 8.7 0 1 0 17.4 0 a8.7 8.7 0 1 0 -17.4 0zM285.11 3485.44 a8.7 8.7 0 1 0 17.4 0 a8.7 8.7 0 1 0 -17.4 0zM360.46 3528.94 a8.7 8.7 0 1 0 17.4 0 a8.7 8.7 0 1 0 -17.4 0zM360.46 3615.94 a8.7 8.7 0 1 0 17.4 0 a8.7 8.7 0 1 0 -17.4 0zM285.11 3659.44 a8.7 8.7 0 1 0 17.4 0 a8.7 8.7 0 1 0 -17.4 0zM209.76 6225.94 a8.7 8.7 0 1 0 17.4 0 a8.7 8.7 0 1 0 -17.4 0zM285.11 6269.44 a8.7 8.7 0 1 0 17.4 0 a8.7 8.7 0 1 0 -17.4 0zM285.11 6356.44 a8.7 8.7 0 1 0 17.4 0 a8.7 8.7 0 1 0 -17.4 0zM209.76 6399.94 a8.7 8.7 0 1 0 17.4 0 a8.7 8.7 0 1 0 -17.4 0zM134.42 6356.44 a8.7 8.7 0 1 0 17.4 0 a8.7 8.7 0 1 0 -17.4 0zM134.42 6269.44 a8.7 8.7 0 1 0 17.4 0 a8.7 8.7 0 1 0 -17.4 0zM285.11 7313.44 a8.7 8.7 0 1 0 17.4 0 a8.7 8.7 0 1 0 -17.4 0zM285.11 7400.44 a8.7 8.7 0 1 0 17.4 0 a8.7 8.7 0 1 0 -17.4 0zM209.76 7443.94 a8.7 8.7 0 1 0 17.4 0 a8.7 8.7 0 1 0 -17.4 0zM134.42 7400.44 a8.7 8.7 0 1 0 17.4 0 a8.7 8.7 0 1 0 -17.4 0zM209.76 7530.94 a8.7 8.7 0 1 0 17.4 0 a8.7 8.7 0 1 0 -17.4 0zM285.11 7574.44 a8.7 8.7 0 1 0 17.4 0 a8.7 8.7 0 1 0 -17.4 0zM285.11 7661.44 a8.7 8.7 0 1 0 17.4 0 a8.7 8.7 0 1 0 -17.4 0zM209.76 7704.94 a8.7 8.7 0 1 0 17.4 0 a8.7 8.7 0 1 0 -17.4 0zM285.11 8618.44 a8.7 8.7 0 1 0 17.4 0 a8.7 8.7 0 1 0 -17.4 0zM285.11 8705.44 a8.7 8.7 0 1 0 17.4 0 a8.7 8.7 0 1 0 -17.4 0zM209.76 8748.94 a8.7 8.7 0 1 0 17.4 0 a8.7 8.7 0 1 0 -17.4 0zM134.42 8705.44 a8.7 8.7 0 1 0 17.4 0 a8.7 8.7 0 1 0 -17.4 0zM360.46 -38.06 a8.7 8.7 0 1 0 17.4 0 a8.7 8.7 0 1 0 -17.4 0zM435.8 5.44 a8.7 8.7 0 1 0 17.4 0 a8.7 8.7 0 1 0 -17.4 0zM435.8 92.44 a8.7 8.7 0 1 0 17.4 0 a8.7 8.7 0 1 0 -17.4 0zM285.11 5.44 a8.7 8.7 0 1 0 17.4 0 a8.7 8.7 0 1 0 -17.4 0zM435.8 266.44 a8.7 8.7 0 1 0 17.4 0 a8.7 8.7 0 1 0 -17.4 0zM435.8 353.44 a8.7 8.7 0 1 0 17.4 0 a8.7 8.7 0 1 0 -17.4 0zM511.15 396.94 a8.7 8.7 0 1 0 17.4 0 a8.7 8.7 0 1 0 -17.4 0zM511.15 483.94 a8.7 8.7 0 1 0 17.4 0 a8.7 8.7 0 1 0 -17.4 0zM435.8 527.44 a8.7 8.7 0 1 0 17.4 0 a8.7 8.7 0 1 0 -17.4 0zM435.8 614.44 a8.7 8.7 0 1 0 17.4 0 a8.7 8.7 0 1 0 -17.4 0zM511.15 657.94 a8.7 8.7 0 1 0 17.4 0 a8.7 8.7 0 1 0 -17.4 0zM511.15 744.94 a8.7 8.7 0 1 0 17.4 0 a8.7 8.7 0 1 0 -17.4 0zM435.8 788.44 a8.7 8.7 0 1 0 17.4 0 a8.7 8.7 0 1 0 -17.4 0zM360.46 744.94 a8.7 8.7 0 1 0 17.4 0 a8.7 8.7 0 1 0 -17.4 0zM360.46 657.94 a8.7 8.7 0 1 0 17.4 0 a8.7 8.7 0 1 0 -17.4 0zM435.8 1397.44 a8.7 8.7 0 1 0 17.4 0 a8.7 8.7 0 1 0 -17.4 0zM511.15 1440.94 a8.7 8.7 0 1 0 17.4 0 a8.7 8.7 0 1 0 -17.4 0zM511.15 1527.94 a8.7 8.7 0 1 0 17.4 0 a8.7 8.7 0 1 0 -17.4 0zM435.8 1571.44 a8.7 8.7 0 1 0 17.4 0 a8.7 8.7 0 1 0 -17.4 0zM360.46 1527.94 a8.7 8.7 0 1 0 17.4 0 a8.7 8.7 0 1 0 -17.4 0zM360.46 1440.94 a8.7 8.7 0 1 0 17.4 0 a8.7 8.7 0 1 0 -17.4 0zM435.8 2180.44 a8.7 8.7 0 1 0 17.4 0 a8.7 8.7 0 1 0 -17.4 0zM511.15 2223.94 a8.7 8.7 0 1 0 17.4 0 a8.7 8.7 0 1 0 -17.4 0zM511.15 2310.94 a8.7 8.7 0 1 0 17.4 0 a8.7 8.7 0 1 0 -17.4 0zM435.8 2354.44 a8.7 8.7 0 1 0 17.4 0 a8.7 8.7 0 1 0 -17.4 0zM360.46 2310.94 a8.7 8.7 0 1 0 17.4 0 a8.7 8.7 0 1 0 -17.4 0zM360.46 2223.94 a8.7 8.7 0 1 0 17.4 0 a8.7 8.7 0 1 0 -17.4 0zM435.8 2963.44 a8.7 8.7 0 1 0 17.4 0 a8.7 8.7 0 1 0 -17.4 0zM511.15 3006.94 a8.7 8.7 0 1 0 17.4 0 a8.7 8.7 0 1 0 -17.4 0zM511.15 3093.94 a8.7 8.7 0 1 0 17.4 0 a8.7 8.7 0 1 0 -17.4 0zM435.8 3137.44 a8.7 8.7 0 1 0 17.4 0 a8.7 8.7 0 1 0 -17.4 0zM360.46 3093.94 a8.7 8.7 0 1 0 17.4 0 a8.7 8.7 0 1 0 -17.4 0zM360.46 3006.94 a8.7 8.7 0 1 0 17.4 0 a8.7 8.7 0 1 0 -17.4 0zM435.8 3224.44 a8.7 8.7 0 1 0 17.4 0 a8.7 8.7 0 1 0 -17.4 0zM511.15 3267.94 a8.7 8.7 0 1 0 17.4 0 a8.7 8.7 0 1 0 -17.4 0zM511.15 3354.94 a8.7 8.7 0 1 0 17.4 0 a8.7 8.7 0 1 0 -17.4 0zM435.8 3398.44 a8.7 8.7 0 1 0 17.4 0 a8.7 8.7 0 1 0 -17.4 0zM435.8 3485.44 a8.7 8.7 0 1 0 17.4 0 a8.7 8.7 0 1 0 -17.4 0zM511.15 3528.94 a8.7 8.7 0 1 0 17.4 0 a8.7 8.7 0 1 0 -17.4 0zM511.15 3615.94 a8.7 8.7 0 1 0 17.4 0 a8.7 8.7 0 1 0 -17.4 0zM435.8 3659.44 a8.7 8.7 0 1 0 17.4 0 a8.7 8.7 0 1 0 -17.4 0zM360.46 4137.94 a8.7 8.7 0 1 0 17.4 0 a8.7 8.7 0 1 0 -17.4 0zM435.8 4181.44 a8.7 8.7 0 1 0 17.4 0 a8.7 8.7 0 1 0 -17.4 0zM435.8 4268.44 a8.7 8.7 0 1 0 17.4 0 a8.7 8.7 0 1 0 -17.4 0zM360.46 4311.94 a8.7 8.7 0 1 0 17.4 0 a8.7 8.7 0 1 0 -17.4 0zM285.11 4268.44 a8.7 8.7 0 1 0 17.4 0 a8.7 8.7 0 1 0 -17.4 0zM285.11 4181.44 a8.7 8.7 0 1 0 17.4 0 a8.7 8.7 0 1 0 -17.4 0zM360.46 4398.94 a8.7 8.7 0 1 0 17.4 0 a8.7 8.7 0 1 0 -17.4 0zM435.8 4442.44 a8.7 8.7 0 1 0 17.4 0 a8.7 8.7 0 1 0 -17.4 0zM435.8 4529.44 a8.7 8.7 0 1 0 17.4 0 a8.7 8.7 0 1 0 -17.4 0zM360.46 4572.94 a8.7 8.7 0 1 0 17.4 0 a8.7 8.7 0 1 0 -17.4 0zM285.11 4529.44 a8.7 8.7 0 1 0 17.4 0 a8.7 8.7 0 1 0 -17.4 0zM285.11 4442.44 a8.7 8.7 0 1 0 17.4 0 a8.7 8.7 0 1 0 -17.4 0zM435.8 6095.44 a8.7 8.7 0 1 0 17.4 0 a8.7 8.7 0 1 0 -17.4 0zM511.15 6138.94 a8.7 8.7 0 1 0 17.4 0 a8.7 8.7 0 1 0 -17.4 0zM511.15 6225.94 a8.7 8.7 0 1 0 17.4 0 a8.7 8.7 0 1 0 -17.4 0zM435.8 6269.44 a8.7 8.7 0 1 0 17.4 0 a8.7 8.7 0 1 0 -17.4 0zM360.46 6225.94 a8.7 8.7 0 1 0 17.4 0 a8.7 8.7 0 1 0 -17.4 0zM360.46 6138.94 a8.7 8.7 0 1 0 17.4 0 a8.7 8.7 0 1 0 -17.4 0zM360.46 7791.94 a8.7 8.7 0 1 0 17.4 0 a8.7 8.7 0 1 0 -17.4 0zM435.8 7835.44 a8.7 8.7 0 1 0 17.4 0 a8.7 8.7 0 1 0 -17.4 0zM435.8 7922.44 a8.7 8.7 0 1 0 17.4 0 a8.7 8.7 0 1 0 -17.4 0zM360.46 7965.94 a8.7 8.7 0 1 0 17.4 0 a8.7 8.7 0 1 0 -17.4 0zM285.11 7922.44 a8.7 8.7 0 1 0 17.4 0 a8.7 8.7 0 1 0 -17.4 0zM285.11 7835.44 a8.7 8.7 0 1 0 17.4 0 a8.7 8.7 0 1 0 -17.4 0zM586.49 92.44 a8.7 8.7 0 1 0 17.4 0 a8.7 8.7 0 1 0 -17.4 0zM661.84 135.94 a8.7 8.7 0 1 0 17.4 0 a8.7 8.7 0 1 0 -17.4 0zM661.84 222.94 a8.7 8.7 0 1 0 17.4 0 a8.7 8.7 0 1 0 -17.4 0zM586.49 266.44 a8.7 8.7 0 1 0 17.4 0 a8.7 8.7 0 1 0 -17.4 0zM511.15 222.94 a8.7 8.7 0 1 0 17.4 0 a8.7 8.7 0 1 0 -17.4 0zM511.15 135.94 a8.7 8.7 0 1 0 17.4 0 a8.7 8.7 0 1 0 -17.4 0zM586.49 353.44 a8.7 8.7 0 1 0 17.4 0 a8.7 8.7 0 1 0 -17.4 0zM661.84 396.94 a8.7 8.7 0 1 0 17.4 0 a8.7 8.7 0 1 0 -17.4 0zM661.84 483.94 a8.7 8.7 0 1 0 17.4 0 a8.7 8.7 0 1 0 -17.4 0zM586.49 527.44 a8.7 8.7 0 1 0 17.4 0 a8.7 8.7 0 1 0 -17.4 0zM586.49 1658.44 a8.7 8.7 0 1 0 17.4 0 a8.7 8.7 0 1 0 -17.4 0zM661.84 1701.94 a8.7 8.7 0 1 0 17.4 0 a8.7 8.7 0 1 0 -17.4 0zM661.84 1788.94 a8.7 8.7 0 1 0 17.4 0 a8.7 8.7 0 1 0 -17.4 0zM586.49 1832.44 a8.7 8.7 0 1 0 17.4 0 a8.7 8.7 0 1 0 -17.4 0zM511.15 1788.94 a8.7 8.7 0 1 0 17.4 0 a8.7 8.7 0 1 0 -17.4 0zM511.15 1701.94 a8.7 8.7 0 1 0 17.4 0 a8.7 8.7 0 1 0 -17.4 0zM586.49 1919.44 a8.7 8.7 0 1 0 17.4 0 a8.7 8.7 0 1 0 -17.4 0zM661.84 1962.94 a8.7 8.7 0 1 0 17.4 0 a8.7 8.7 0 1 0 -17.4 0zM661.84 2049.94 a8.7 8.7 0 1 0 17.4 0 a8.7 8.7 0 1 0 -17.4 0zM586.49 2093.44 a8.7 8.7 0 1 0 17.4 0 a8.7 8.7 0 1 0 -17.4 0zM511.15 2049.94 a8.7 8.7 0 1 0 17.4 0 a8.7 8.7 0 1 0 -17.4 0zM511.15 1962.94 a8.7 8.7 0 1 0 17.4 0 a8.7 8.7 0 1 0 -17.4 0zM586.49 2180.44 a8.7 8.7 0 1 0 17.4 0 a8.7 8.7 0 1 0 -17.4 0zM435.8 2093.44 a8.7 8.7 0 1 0 17.4 0 a8.7 8.7 0 1 0 -17.4 0zM586.49 2354.44 a8.7 8.7 0 1 0 17.4 0 a8.7 8.7 0 1 0 -17.4 0zM586.49 2441.44 a8.7 8.7 0 1 0 17.4 0 a8.7 8.7 0 1 0 -17.4 0zM511.15 2484.94 a8.7 8.7 0 1 0 17.4 0 a8.7 8.7 0 1 0 -17.4 0zM435.8 2441.44 a8.7 8.7 0 1 0 17.4 0 a8.7 8.7 0 1 0 -17.4 0zM586.49 2963.44 a8.7 8.7 0 1 0 17.4 0 a8.7 8.7 0 1 0 -17.4 0zM661.84 3006.94 a8.7 8.7 0 1 0 17.4 0 a8.7 8.7 0 1 0 -17.4 0zM661.84 3093.94 a8.7 8.7 0 1 0 17.4 0 a8.7 8.7 0 1 0 -17.4 0zM586.49 3137.44 a8.7 8.7 0 1 0 17.4 0 a8.7 8.7 0 1 0 -17.4 0zM511.15 5703.94 a8.7 8.7 0 1 0 17.4 0 a8.7 8.7 0 1 0 -17.4 0zM586.49 5747.44 a8.7 8.7 0 1 0 17.4 0 a8.7 8.7 0 1 0 -17.4 0zM586.49 5834.44 a8.7 8.7 0 1 0 17.4 0 a8.7 8.7 0 1 0 -17.4 0zM511.15 5877.94 a8.7 8.7 0 1 0 17.4 0 a8.7 8.7 0 1 0 -17.4 0zM435.8 5834.44 a8.7 8.7 0 1 0 17.4 0 a8.7 8.7 0 1 0 -17.4 0zM435.8 5747.44 a8.7 8.7 0 1 0 17.4 0 a8.7 8.7 0 1 0 -17.4 0zM511.15 7269.94 a8.7 8.7 0 1 0 17.4 0 a8.7 8.7 0 1 0 -17.4 0zM586.49 7313.44 a8.7 8.7 0 1 0 17.4 0 a8.7 8.7 0 1 0 -17.4 0zM586.49 7400.44 a8.7 8.7 0 1 0 17.4 0 a8.7 8.7 0 1 0 -17.4 0zM511.15 7443.94 a8.7 8.7 0 1 0 17.4 0 a8.7 8.7 0 1 0 -17.4 0zM435.8 7400.44 a8.7 8.7 0 1 0 17.4 0 a8.7 8.7 0 1 0 -17.4 0zM435.8 7313.44 a8.7 8.7 0 1 0 17.4 0 a8.7 8.7 0 1 0 -17.4 0zM586.49 7661.44 a8.7 8.7 0 1 0 17.4 0 a8.7 8.7 0 1 0 -17.4 0zM661.84 7704.94 a8.7 8.7 0 1 0 17.4 0 a8.7 8.7 0 1 0 -17.4 0zM661.84 7791.94 a8.7 8.7 0 1 0 17.4 0 a8.7 8.7 0 1 0 -17.4 0zM586.49 7835.44 a8.7 8.7 0 1 0 17.4 0 a8.7 8.7 0 1 0 -17.4 0zM511.15 7791.94 a8.7 8.7 0 1 0 17.4 0 a8.7 8.7 0 1 0 -17.4 0zM511.15 7704.94 a8.7 8.7 0 1 0 17.4 0 a8.7 8.7 0 1 0 -17.4 0zM586.49 8966.44 a8.7 8.7 0 1 0 17.4 0 a8.7 8.7 0 1 0 -17.4 0zM661.84 9009.94 a8.7 8.7 0 1 0 17.4 0 a8.7 8.7 0 1 0 -17.4 0zM661.84 9096.94 a8.7 8.7 0 1 0 17.4 0 a8.7 8.7 0 1 0 -17.4 0zM586.49 9140.44 a8.7 8.7 0 1 0 17.4 0 a8.7 8.7 0 1 0 -17.4 0zM511.15 9096.94 a8.7 8.7 0 1 0 17.4 0 a8.7 8.7 0 1 0 -17.4 0zM511.15 9009.94 a8.7 8.7 0 1 0 17.4 0 a8.7 8.7 0 1 0 -17.4 0zM661.84 1527.94 a8.7 8.7 0 1 0 17.4 0 a8.7 8.7 0 1 0 -17.4 0zM737.19 1571.44 a8.7 8.7 0 1 0 17.4 0 a8.7 8.7 0 1 0 -17.4 0zM737.19 1658.44 a8.7 8.7 0 1 0 17.4 0 a8.7 8.7 0 1 0 -17.4 0zM586.49 1571.44 a8.7 8.7 0 1 0 17.4 0 a8.7 8.7 0 1 0 -17.4 0zM661.84 2310.94 a8.7 8.7 0 1 0 17.4 0 a8.7 8.7 0 1 0 -17.4 0zM737.19 2354.44 a8.7 8.7 0 1 0 17.4 0 a8.7 8.7 0 1 0 -17.4 0zM737.19 2441.44 a8.7 8.7 0 1 0 17.4 0 a8.7 8.7 0 1 0 -17.4 0zM661.84 2484.94 a8.7 8.7 0 1 0 17.4 0 a8.7 8.7 0 1 0 -17.4 0zM737.19 3485.44 a8.7 8.7 0 1 0 17.4 0 a8.7 8.7 0 1 0 -17.4 0zM812.53 3528.94 a8.7 8.7 0 1 0 17.4 0 a8.7 8.7 0 1 0 -17.4 0zM812.53 3615.94 a8.7 8.7 0 1 0 17.4 0 a8.7 8.7 0 1 0 -17.4 0zM737.19 3659.44 a8.7 8.7 0 1 0 17.4 0 a8.7 8.7 0 1 0 -17.4 0zM661.84 3615.94 a8.7 8.7 0 1 0 17.4 0 a8.7 8.7 0 1 0 -17.4 0zM661.84 3528.94 a8.7 8.7 0 1 0 17.4 0 a8.7 8.7 0 1 0 -17.4 0zM737.19 3746.44 a8.7 8.7 0 1 0 17.4 0 a8.7 8.7 0 1 0 -17.4 0zM812.53 3789.94 a8.7 8.7 0 1 0 17.4 0 a8.7 8.7 0 1 0 -17.4 0zM812.53 3876.94 a8.7 8.7 0 1 0 17.4 0 a8.7 8.7 0 1 0 -17.4 0zM737.19 3920.44 a8.7 8.7 0 1 0 17.4 0 a8.7 8.7 0 1 0 -17.4 0zM661.84 3876.94 a8.7 8.7 0 1 0 17.4 0 a8.7 8.7 0 1 0 -17.4 0zM661.84 3789.94 a8.7 8.7 0 1 0 17.4 0 a8.7 8.7 0 1 0 -17.4 0zM737.19 4007.44 a8.7 8.7 0 1 0 17.4 0 a8.7 8.7 0 1 0 -17.4 0zM661.84 4050.94 a8.7 8.7 0 1 0 17.4 0 a8.7 8.7 0 1 0 -17.4 0zM586.49 4007.44 a8.7 8.7 0 1 0 17.4 0 a8.7 8.7 0 1 0 -17.4 0zM586.49 3920.44 a8.7 8.7 0 1 0 17.4 0 a8.7 8.7 0 1 0 -17.4 0zM737.19 4790.44 a8.7 8.7 0 1 0 17.4 0 a8.7 8.7 0 1 0 -17.4 0zM812.53 4833.94 a8.7 8.7 0 1 0 17.4 0 a8.7 8.7 0 1 0 -17.4 0zM812.53 4920.94 a8.7 8.7 0 1 0 17.4 0 a8.7 8.7 0 1 0 -17.4 0zM737.19 4964.44 a8.7 8.7 0 1 0 17.4 0 a8.7 8.7 0 1 0 -17.4 0zM661.84 4920.94 a8.7 8.7 0 1 0 17.4 0 a8.7 8.7 0 1 0 -17.4 0zM661.84 4833.94 a8.7 8.7 0 1 0 17.4 0 a8.7 8.7 0 1 0 -17.4 0zM737.19 5051.44 a8.7 8.7 0 1 0 17.4 0 a8.7 8.7 0 1 0 -17.4 0zM661.84 5094.94 a8.7 8.7 0 1 0 17.4 0 a8.7 8.7 0 1 0 -17.4 0zM586.49 5051.44 a8.7 8.7 0 1 0 17.4 0 a8.7 8.7 0 1 0 -17.4 0zM586.49 4964.44 a8.7 8.7 0 1 0 17.4 0 a8.7 8.7 0 1 0 -17.4 0zM812.53 5094.94 a8.7 8.7 0 1 0 17.4 0 a8.7 8.7 0 1 0 -17.4 0zM812.53 5181.94 a8.7 8.7 0 1 0 17.4 0 a8.7 8.7 0 1 0 -17.4 0zM737.19 5225.44 a8.7 8.7 0 1 0 17.4 0 a8.7 8.7 0 1 0 -17.4 0zM661.84 5181.94 a8.7 8.7 0 1 0 17.4 0 a8.7 8.7 0 1 0 -17.4 0zM661.84 5703.94 a8.7 8.7 0 1 0 17.4 0 a8.7 8.7 0 1 0 -17.4 0zM737.19 5747.44 a8.7 8.7 0 1 0 17.4 0 a8.7 8.7 0 1 0 -17.4 0zM737.19 5834.44 a8.7 8.7 0 1 0 17.4 0 a8.7 8.7 0 1 0 -17.4 0zM661.84 5877.94 a8.7 8.7 0 1 0 17.4 0 a8.7 8.7 0 1 0 -17.4 0zM737.19 7139.44 a8.7 8.7 0 1 0 17.4 0 a8.7 8.7 0 1 0 -17.4 0zM812.53 7182.94 a8.7 8.7 0 1 0 17.4 0 a8.7 8.7 0 1 0 -17.4 0zM812.53 7269.94 a8.7 8.7 0 1 0 17.4 0 a8.7 8.7 0 1 0 -17.4 0zM737.19 7313.44 a8.7 8.7 0 1 0 17.4 0 a8.7 8.7 0 1 0 -17.4 0zM661.84 7269.94 a8.7 8.7 0 1 0 17.4 0 a8.7 8.7 0 1 0 -17.4 0zM661.84 7182.94 a8.7 8.7 0 1 0 17.4 0 a8.7 8.7 0 1 0 -17.4 0zM737.19 7400.44 a8.7 8.7 0 1 0 17.4 0 a8.7 8.7 0 1 0 -17.4 0zM661.84 7443.94 a8.7 8.7 0 1 0 17.4 0 a8.7 8.7 0 1 0 -17.4 0zM737.19 7922.44 a8.7 8.7 0 1 0 17.4 0 a8.7 8.7 0 1 0 -17.4 0zM812.53 7965.94 a8.7 8.7 0 1 0 17.4 0 a8.7 8.7 0 1 0 -17.4 0zM812.53 8052.94 a8.7 8.7 0 1 0 17.4 0 a8.7 8.7 0 1 0 -17.4 0zM737.19 8096.44 a8.7 8.7 0 1 0 17.4 0 a8.7 8.7 0 1 0 -17.4 0zM661.84 8052.94 a8.7 8.7 0 1 0 17.4 0 a8.7 8.7 0 1 0 -17.4 0zM661.84 7965.94 a8.7 8.7 0 1 0 17.4 0 a8.7 8.7 0 1 0 -17.4 0zM661.84 8835.94 a8.7 8.7 0 1 0 17.4 0 a8.7 8.7 0 1 0 -17.4 0zM737.19 8879.44 a8.7 8.7 0 1 0 17.4 0 a8.7 8.7 0 1 0 -17.4 0zM737.19 8966.44 a8.7 8.7 0 1 0 17.4 0 a8.7 8.7 0 1 0 -17.4 0zM586.49 8879.44 a8.7 8.7 0 1 0 17.4 0 a8.7 8.7 0 1 0 -17.4 0zM887.88 92.44 a8.7 8.7 0 1 0 17.4 0 a8.7 8.7 0 1 0 -17.4 0zM963.23 135.94 a8.7 8.7 0 1 0 17.4 0 a8.7 8.7 0 1 0 -17.4 0zM963.23 222.94 a8.7 8.7 0 1 0 17.4 0 a8.7 8.7 0 1 0 -17.4 0zM887.88 266.44 a8.7 8.7 0 1 0 17.4 0 a8.7 8.7 0 1 0 -17.4 0zM812.53 222.94 a8.7 8.7 0 1 0 17.4 0 a8.7 8.7 0 1 0 -17.4 0zM812.53 135.94 a8.7 8.7 0 1 0 17.4 0 a8.7 8.7 0 1 0 -17.4 0zM887.88 353.44 a8.7 8.7 0 1 0 17.4 0 a8.7 8.7 0 1 0 -17.4 0zM963.23 396.94 a8.7 8.7 0 1 0 17.4 0 a8.7 8.7 0 1 0 -17.4 0zM963.23 483.94 a8.7 8.7 0 1 0 17.4 0 a8.7 8.7 0 1 0 -17.4 0zM887.88 527.44 a8.7 8.7 0 1 0 17.4 0 a8.7 8.7 0 1 0 -17.4 0zM812.53 483.94 a8.7 8.7 0 1 0 17.4 0 a8.7 8.7 0 1 0 -17.4 0zM812.53 396.94 a8.7 8.7 0 1 0 17.4 0 a8.7 8.7 0 1 0 -17.4 0zM812.53 1005.94 a8.7 8.7 0 1 0 17.4 0 a8.7 8.7 0 1 0 -17.4 0zM887.88 1049.44 a8.7 8.7 0 1 0 17.4 0 a8.7 8.7 0 1 0 -17.4 0zM887.88 1136.44 a8.7 8.7 0 1 0 17.4 0 a8.7 8.7 0 1 0 -17.4 0zM812.53 1179.94 a8.7 8.7 0 1 0 17.4 0 a8.7 8.7 0 1 0 -17.4 0zM737.19 1136.44 a8.7 8.7 0 1 0 17.4 0 a8.7 8.7 0 1 0 -17.4 0zM737.19 1049.44 a8.7 8.7 0 1 0 17.4 0 a8.7 8.7 0 1 0 -17.4 0zM812.53 1527.94 a8.7 8.7 0 1 0 17.4 0 a8.7 8.7 0 1 0 -17.4 0zM887.88 1571.44 a8.7 8.7 0 1 0 17.4 0 a8.7 8.7 0 1 0 -17.4 0zM887.88 1658.44 a8.7 8.7 0 1 0 17.4 0 a8.7 8.7 0 1 0 -17.4 0zM812.53 1701.94 a8.7 8.7 0 1 0 17.4 0 a8.7 8.7 0 1 0 -17.4 0zM812.53 1788.94 a8.7 8.7 0 1 0 17.4 0 a8.7 8.7 0 1 0 -17.4 0zM887.88 1832.44 a8.7 8.7 0 1 0 17.4 0 a8.7 8.7 0 1 0 -17.4 0zM887.88 1919.44 a8.7 8.7 0 1 0 17.4 0 a8.7 8.7 0 1 0 -17.4 0zM812.53 1962.94 a8.7 8.7 0 1 0 17.4 0 a8.7 8.7 0 1 0 -17.4 0zM737.19 1919.44 a8.7 8.7 0 1 0 17.4 0 a8.7 8.7 0 1 0 -17.4 0zM737.19 1832.44 a8.7 8.7 0 1 0 17.4 0 a8.7 8.7 0 1 0 -17.4 0zM812.53 2049.94 a8.7 8.7 0 1 0 17.4 0 a8.7 8.7 0 1 0 -17.4 0zM887.88 2093.44 a8.7 8.7 0 1 0 17.4 0 a8.7 8.7 0 1 0 -17.4 0zM887.88 2180.44 a8.7 8.7 0 1 0 17.4 0 a8.7 8.7 0 1 0 -17.4 0zM812.53 2223.94 a8.7 8.7 0 1 0 17.4 0 a8.7 8.7 0 1 0 -17.4 0zM737.19 2180.44 a8.7 8.7 0 1 0 17.4 0 a8.7 8.7 0 1 0 -17.4 0zM737.19 2093.44 a8.7 8.7 0 1 0 17.4 0 a8.7 8.7 0 1 0 -17.4 0zM812.53 3354.94 a8.7 8.7 0 1 0 17.4 0 a8.7 8.7 0 1 0 -17.4 0zM887.88 3398.44 a8.7 8.7 0 1 0 17.4 0 a8.7 8.7 0 1 0 -17.4 0zM887.88 3485.44 a8.7 8.7 0 1 0 17.4 0 a8.7 8.7 0 1 0 -17.4 0zM737.19 3398.44 a8.7 8.7 0 1 0 17.4 0 a8.7 8.7 0 1 0 -17.4 0zM887.88 4964.44 a8.7 8.7 0 1 0 17.4 0 a8.7 8.7 0 1 0 -17.4 0zM887.88 5051.44 a8.7 8.7 0 1 0 17.4 0 a8.7 8.7 0 1 0 -17.4 0zM812.53 5703.94 a8.7 8.7 0 1 0 17.4 0 a8.7 8.7 0 1 0 -17.4 0zM887.88 5747.44 a8.7 8.7 0 1 0 17.4 0 a8.7 8.7 0 1 0 -17.4 0zM887.88 5834.44 a8.7 8.7 0 1 0 17.4 0 a8.7 8.7 0 1 0 -17.4 0zM812.53 5877.94 a8.7 8.7 0 1 0 17.4 0 a8.7 8.7 0 1 0 -17.4 0zM887.88 6878.44 a8.7 8.7 0 1 0 17.4 0 a8.7 8.7 0 1 0 -17.4 0zM963.23 6921.94 a8.7 8.7 0 1 0 17.4 0 a8.7 8.7 0 1 0 -17.4 0zM963.23 7008.94 a8.7 8.7 0 1 0 17.4 0 a8.7 8.7 0 1 0 -17.4 0zM887.88 7052.44 a8.7 8.7 0 1 0 17.4 0 a8.7 8.7 0 1 0 -17.4 0zM812.53 7008.94 a8.7 8.7 0 1 0 17.4 0 a8.7 8.7 0 1 0 -17.4 0zM812.53 6921.94 a8.7 8.7 0 1 0 17.4 0 a8.7 8.7 0 1 0 -17.4 0zM887.88 7139.44 a8.7 8.7 0 1 0 17.4 0 a8.7 8.7 0 1 0 -17.4 0zM737.19 7052.44 a8.7 8.7 0 1 0 17.4 0 a8.7 8.7 0 1 0 -17.4 0zM963.23 7182.94 a8.7 8.7 0 1 0 17.4 0 a8.7 8.7 0 1 0 -17.4 0zM963.23 7269.94 a8.7 8.7 0 1 0 17.4 0 a8.7 8.7 0 1 0 -17.4 0zM887.88 7313.44 a8.7 8.7 0 1 0 17.4 0 a8.7 8.7 0 1 0 -17.4 0zM812.53 8313.94 a8.7 8.7 0 1 0 17.4 0 a8.7 8.7 0 1 0 -17.4 0zM887.88 8357.44 a8.7 8.7 0 1 0 17.4 0 a8.7 8.7 0 1 0 -17.4 0zM887.88 8444.44 a8.7 8.7 0 1 0 17.4 0 a8.7 8.7 0 1 0 -17.4 0zM812.53 8487.94 a8.7 8.7 0 1 0 17.4 0 a8.7 8.7 0 1 0 -17.4 0zM737.19 8444.44 a8.7 8.7 0 1 0 17.4 0 a8.7 8.7 0 1 0 -17.4 0zM737.19 8357.44 a8.7 8.7 0 1 0 17.4 0 a8.7 8.7 0 1 0 -17.4 0zM812.53 8574.94 a8.7 8.7 0 1 0 17.4 0 a8.7 8.7 0 1 0 -17.4 0zM887.88 8618.44 a8.7 8.7 0 1 0 17.4 0 a8.7 8.7 0 1 0 -17.4 0zM887.88 8705.44 a8.7 8.7 0 1 0 17.4 0 a8.7 8.7 0 1 0 -17.4 0zM812.53 8748.94 a8.7 8.7 0 1 0 17.4 0 a8.7 8.7 0 1 0 -17.4 0zM737.19 8705.44 a8.7 8.7 0 1 0 17.4 0 a8.7 8.7 0 1 0 -17.4 0zM737.19 8618.44 a8.7 8.7 0 1 0 17.4 0 a8.7 8.7 0 1 0 -17.4 0zM963.23 744.94 a8.7 8.7 0 1 0 17.4 0 a8.7 8.7 0 1 0 -17.4 0zM1038.57 788.44 a8.7 8.7 0 1 0 17.4 0 a8.7 8.7 0 1 0 -17.4 0zM1038.57 875.44 a8.7 8.7 0 1 0 17.4 0 a8.7 8.7 0 1 0 -17.4 0zM963.23 918.94 a8.7 8.7 0 1 0 17.4 0 a8.7 8.7 0 1 0 -17.4 0zM887.88 875.44 a8.7 8.7 0 1 0 17.4 0 a8.7 8.7 0 1 0 -17.4 0zM887.88 788.44 a8.7 8.7 0 1 0 17.4 0 a8.7 8.7 0 1 0 -17.4 0zM963.23 1005.94 a8.7 8.7 0 1 0 17.4 0 a8.7 8.7 0 1 0 -17.4 0zM1038.57 1049.44 a8.7 8.7 0 1 0 17.4 0 a8.7 8.7 0 1 0 -17.4 0zM1038.57 1136.44 a8.7 8.7 0 1 0 17.4 0 a8.7 8.7 0 1 0 -17.4 0zM963.23 1179.94 a8.7 8.7 0 1 0 17.4 0 a8.7 8.7 0 1 0 -17.4 0zM963.23 1266.94 a8.7 8.7 0 1 0 17.4 0 a8.7 8.7 0 1 0 -17.4 0zM1038.57 1310.44 a8.7 8.7 0 1 0 17.4 0 a8.7 8.7 0 1 0 -17.4 0zM1038.57 1397.44 a8.7 8.7 0 1 0 17.4 0 a8.7 8.7 0 1 0 -17.4 0zM963.23 1440.94 a8.7 8.7 0 1 0 17.4 0 a8.7 8.7 0 1 0 -17.4 0zM887.88 1397.44 a8.7 8.7 0 1 0 17.4 0 a8.7 8.7 0 1 0 -17.4 0zM887.88 1310.44 a8.7 8.7 0 1 0 17.4 0 a8.7 8.7 0 1 0 -17.4 0zM963.23 2310.94 a8.7 8.7 0 1 0 17.4 0 a8.7 8.7 0 1 0 -17.4 0zM1038.57 2354.44 a8.7 8.7 0 1 0 17.4 0 a8.7 8.7 0 1 0 -17.4 0zM1038.57 2441.44 a8.7 8.7 0 1 0 17.4 0 a8.7 8.7 0 1 0 -17.4 0zM963.23 2484.94 a8.7 8.7 0 1 0 17.4 0 a8.7 8.7 0 1 0 -17.4 0zM887.88 2441.44 a8.7 8.7 0 1 0 17.4 0 a8.7 8.7 0 1 0 -17.4 0zM887.88 2354.44 a8.7 8.7 0 1 0 17.4 0 a8.7 8.7 0 1 0 -17.4 0zM1038.57 3224.44 a8.7 8.7 0 1 0 17.4 0 a8.7 8.7 0 1 0 -17.4 0zM1113.92 3267.94 a8.7 8.7 0 1 0 17.4 0 a8.7 8.7 0 1 0 -17.4 0zM1113.92 3354.94 a8.7 8.7 0 1 0 17.4 0 a8.7 8.7 0 1 0 -17.4 0zM1038.57 3398.44 a8.7 8.7 0 1 0 17.4 0 a8.7 8.7 0 1 0 -17.4 0zM963.23 3354.94 a8.7 8.7 0 1 0 17.4 0 a8.7 8.7 0 1 0 -17.4 0zM963.23 3267.94 a8.7 8.7 0 1 0 17.4 0 a8.7 8.7 0 1 0 -17.4 0zM1038.57 3485.44 a8.7 8.7 0 1 0 17.4 0 a8.7 8.7 0 1 0 -17.4 0zM963.23 3528.94 a8.7 8.7 0 1 0 17.4 0 a8.7 8.7 0 1 0 -17.4 0zM1038.57 3746.44 a8.7 8.7 0 1 0 17.4 0 a8.7 8.7 0 1 0 -17.4 0zM1113.92 3789.94 a8.7 8.7 0 1 0 17.4 0 a8.7 8.7 0 1 0 -17.4 0zM1113.92 3876.94 a8.7 8.7 0 1 0 17.4 0 a8.7 8.7 0 1 0 -17.4 0zM1038.57 3920.44 a8.7 8.7 0 1 0 17.4 0 a8.7 8.7 0 1 0 -17.4 0zM963.23 3876.94 a8.7 8.7 0 1 0 17.4 0 a8.7 8.7 0 1 0 -17.4 0zM963.23 3789.94 a8.7 8.7 0 1 0 17.4 0 a8.7 8.7 0 1 0 -17.4 0zM1038.57 4268.44 a8.7 8.7 0 1 0 17.4 0 a8.7 8.7 0 1 0 -17.4 0zM1113.92 4311.94 a8.7 8.7 0 1 0 17.4 0 a8.7 8.7 0 1 0 -17.4 0zM1113.92 4398.94 a8.7 8.7 0 1 0 17.4 0 a8.7 8.7 0 1 0 -17.4 0zM1038.57 4442.44 a8.7 8.7 0 1 0 17.4 0 a8.7 8.7 0 1 0 -17.4 0zM963.23 4398.94 a8.7 8.7 0 1 0 17.4 0 a8.7 8.7 0 1 0 -17.4 0zM963.23 4311.94 a8.7 8.7 0 1 0 17.4 0 a8.7 8.7 0 1 0 -17.4 0zM963.23 4659.94 a8.7 8.7 0 1 0 17.4 0 a8.7 8.7 0 1 0 -17.4 0zM1038.57 4703.44 a8.7 8.7 0 1 0 17.4 0 a8.7 8.7 0 1 0 -17.4 0zM1038.57 4790.44 a8.7 8.7 0 1 0 17.4 0 a8.7 8.7 0 1 0 -17.4 0zM963.23 4833.94 a8.7 8.7 0 1 0 17.4 0 a8.7 8.7 0 1 0 -17.4 0zM887.88 4790.44 a8.7 8.7 0 1 0 17.4 0 a8.7 8.7 0 1 0 -17.4 0zM887.88 4703.44 a8.7 8.7 0 1 0 17.4 0 a8.7 8.7 0 1 0 -17.4 0zM963.23 4920.94 a8.7 8.7 0 1 0 17.4 0 a8.7 8.7 0 1 0 -17.4 0zM1038.57 4964.44 a8.7 8.7 0 1 0 17.4 0 a8.7 8.7 0 1 0 -17.4 0zM1038.57 5051.44 a8.7 8.7 0 1 0 17.4 0 a8.7 8.7 0 1 0 -17.4 0zM963.23 5094.94 a8.7 8.7 0 1 0 17.4 0 a8.7 8.7 0 1 0 -17.4 0zM963.23 5181.94 a8.7 8.7 0 1 0 17.4 0 a8.7 8.7 0 1 0 -17.4 0zM1038.57 5225.44 a8.7 8.7 0 1 0 17.4 0 a8.7 8.7 0 1 0 -17.4 0zM1038.57 5312.44 a8.7 8.7 0 1 0 17.4 0 a8.7 8.7 0 1 0 -17.4 0zM963.23 5355.94 a8.7 8.7 0 1 0 17.4 0 a8.7 8.7 0 1 0 -17.4 0zM887.88 5312.44 a8.7 8.7 0 1 0 17.4 0 a8.7 8.7 0 1 0 -17.4 0zM887.88 5225.44 a8.7 8.7 0 1 0 17.4 0 a8.7 8.7 0 1 0 -17.4 0zM1113.92 5355.94 a8.7 8.7 0 1 0 17.4 0 a8.7 8.7 0 1 0 -17.4 0zM1113.92 5442.94 a8.7 8.7 0 1 0 17.4 0 a8.7 8.7 0 1 0 -17.4 0zM1038.57 5486.44 a8.7 8.7 0 1 0 17.4 0 a8.7 8.7 0 1 0 -17.4 0zM963.23 5442.94 a8.7 8.7 0 1 0 17.4 0 a8.7 8.7 0 1 0 -17.4 0zM1038.57 5573.44 a8.7 8.7 0 1 0 17.4 0 a8.7 8.7 0 1 0 -17.4 0zM963.23 5616.94 a8.7 8.7 0 1 0 17.4 0 a8.7 8.7 0 1 0 -17.4 0zM887.88 5573.44 a8.7 8.7 0 1 0 17.4 0 a8.7 8.7 0 1 0 -17.4 0zM887.88 5486.44 a8.7 8.7 0 1 0 17.4 0 a8.7 8.7 0 1 0 -17.4 0zM1113.92 222.94 a8.7 8.7 0 1 0 17.4 0 a8.7 8.7 0 1 0 -17.4 0zM1189.27 266.44 a8.7 8.7 0 1 0 17.4 0 a8.7 8.7 0 1 0 -17.4 0zM1189.27 353.44 a8.7 8.7 0 1 0 17.4 0 a8.7 8.7 0 1 0 -17.4 0zM1113.92 396.94 a8.7 8.7 0 1 0 17.4 0 a8.7 8.7 0 1 0 -17.4 0zM1038.57 353.44 a8.7 8.7 0 1 0 17.4 0 a8.7 8.7 0 1 0 -17.4 0zM1038.57 266.44 a8.7 8.7 0 1 0 17.4 0 a8.7 8.7 0 1 0 -17.4 0zM1113.92 744.94 a8.7 8.7 0 1 0 17.4 0 a8.7 8.7 0 1 0 -17.4 0zM1189.27 788.44 a8.7 8.7 0 1 0 17.4 0 a8.7 8.7 0 1 0 -17.4 0zM1189.27 875.44 a8.7 8.7 0 1 0 17.4 0 a8.7 8.7 0 1 0 -17.4 0zM1113.92 918.94 a8.7 8.7 0 1 0 17.4 0 a8.7 8.7 0 1 0 -17.4 0zM1189.27 1136.44 a8.7 8.7 0 1 0 17.4 0 a8.7 8.7 0 1 0 -17.4 0zM1264.61 1179.94 a8.7 8.7 0 1 0 17.4 0 a8.7 8.7 0 1 0 -17.4 0zM1264.61 1266.94 a8.7 8.7 0 1 0 17.4 0 a8.7 8.7 0 1 0 -17.4 0zM1189.27 1310.44 a8.7 8.7 0 1 0 17.4 0 a8.7 8.7 0 1 0 -17.4 0zM1113.92 1266.94 a8.7 8.7 0 1 0 17.4 0 a8.7 8.7 0 1 0 -17.4 0zM1113.92 1179.94 a8.7 8.7 0 1 0 17.4 0 a8.7 8.7 0 1 0 -17.4 0zM1189.27 1397.44 a8.7 8.7 0 1 0 17.4 0 a8.7 8.7 0 1 0 -17.4 0zM1113.92 1440.94 a8.7 8.7 0 1 0 17.4 0 a8.7 8.7 0 1 0 -17.4 0zM1113.92 1788.94 a8.7 8.7 0 1 0 17.4 0 a8.7 8.7 0 1 0 -17.4 0zM1189.27 1832.44 a8.7 8.7 0 1 0 17.4 0 a8.7 8.7 0 1 0 -17.4 0zM1189.27 1919.44 a8.7 8.7 0 1 0 17.4 0 a8.7 8.7 0 1 0 -17.4 0zM1113.92 1962.94 a8.7 8.7 0 1 0 17.4 0 a8.7 8.7 0 1 0 -17.4 0zM1038.57 1919.44 a8.7 8.7 0 1 0 17.4 0 a8.7 8.7 0 1 0 -17.4 0zM1038.57 1832.44 a8.7 8.7 0 1 0 17.4 0 a8.7 8.7 0 1 0 -17.4 0zM1113.92 2832.94 a8.7 8.7 0 1 0 17.4 0 a8.7 8.7 0 1 0 -17.4 0zM1189.27 2876.44 a8.7 8.7 0 1 0 17.4 0 a8.7 8.7 0 1 0 -17.4 0zM1189.27 2963.44 a8.7 8.7 0 1 0 17.4 0 a8.7 8.7 0 1 0 -17.4 0zM1113.92 3006.94 a8.7 8.7 0 1 0 17.4 0 a8.7 8.7 0 1 0 -17.4 0zM1038.57 2963.44 a8.7 8.7 0 1 0 17.4 0 a8.7 8.7 0 1 0 -17.4 0zM1038.57 2876.44 a8.7 8.7 0 1 0 17.4 0 a8.7 8.7 0 1 0 -17.4 0zM1113.92 3093.94 a8.7 8.7 0 1 0 17.4 0 a8.7 8.7 0 1 0 -17.4 0zM1189.27 3137.44 a8.7 8.7 0 1 0 17.4 0 a8.7 8.7 0 1 0 -17.4 0zM1189.27 3224.44 a8.7 8.7 0 1 0 17.4 0 a8.7 8.7 0 1 0 -17.4 0zM1038.57 3137.44 a8.7 8.7 0 1 0 17.4 0 a8.7 8.7 0 1 0 -17.4 0zM1189.27 3398.44 a8.7 8.7 0 1 0 17.4 0 a8.7 8.7 0 1 0 -17.4 0zM1189.27 3485.44 a8.7 8.7 0 1 0 17.4 0 a8.7 8.7 0 1 0 -17.4 0zM1113.92 3528.94 a8.7 8.7 0 1 0 17.4 0 a8.7 8.7 0 1 0 -17.4 0zM1189.27 3746.44 a8.7 8.7 0 1 0 17.4 0 a8.7 8.7 0 1 0 -17.4 0zM1264.61 3789.94 a8.7 8.7 0 1 0 17.4 0 a8.7 8.7 0 1 0 -17.4 0zM1264.61 3876.94 a8.7 8.7 0 1 0 17.4 0 a8.7 8.7 0 1 0 -17.4 0zM1189.27 3920.44 a8.7 8.7 0 1 0 17.4 0 a8.7 8.7 0 1 0 -17.4 0zM1189.27 4529.44 a8.7 8.7 0 1 0 17.4 0 a8.7 8.7 0 1 0 -17.4 0zM1264.61 4572.94 a8.7 8.7 0 1 0 17.4 0 a8.7 8.7 0 1 0 -17.4 0zM1264.61 4659.94 a8.7 8.7 0 1 0 17.4 0 a8.7 8.7 0 1 0 -17.4 0zM1189.27 4703.44 a8.7 8.7 0 1 0 17.4 0 a8.7 8.7 0 1 0 -17.4 0zM1113.92 4659.94 a8.7 8.7 0 1 0 17.4 0 a8.7 8.7 0 1 0 -17.4 0zM1113.92 4572.94 a8.7 8.7 0 1 0 17.4 0 a8.7 8.7 0 1 0 -17.4 0zM1113.92 4920.94 a8.7 8.7 0 1 0 17.4 0 a8.7 8.7 0 1 0 -17.4 0zM1189.27 4964.44 a8.7 8.7 0 1 0 17.4 0 a8.7 8.7 0 1 0 -17.4 0zM1189.27 5051.44 a8.7 8.7 0 1 0 17.4 0 a8.7 8.7 0 1 0 -17.4 0zM1113.92 5094.94 a8.7 8.7 0 1 0 17.4 0 a8.7 8.7 0 1 0 -17.4 0zM1264.61 5094.94 a8.7 8.7 0 1 0 17.4 0 a8.7 8.7 0 1 0 -17.4 0zM1264.61 5181.94 a8.7 8.7 0 1 0 17.4 0 a8.7 8.7 0 1 0 -17.4 0zM1189.27 5225.44 a8.7 8.7 0 1 0 17.4 0 a8.7 8.7 0 1 0 -17.4 0zM1113.92 5181.94 a8.7 8.7 0 1 0 17.4 0 a8.7 8.7 0 1 0 -17.4 0zM1189.27 5486.44 a8.7 8.7 0 1 0 17.4 0 a8.7 8.7 0 1 0 -17.4 0zM1189.27 5573.44 a8.7 8.7 0 1 0 17.4 0 a8.7 8.7 0 1 0 -17.4 0zM1113.92 5616.94 a8.7 8.7 0 1 0 17.4 0 a8.7 8.7 0 1 0 -17.4 0zM1189.27 7139.44 a8.7 8.7 0 1 0 17.4 0 a8.7 8.7 0 1 0 -17.4 0zM1264.61 7182.94 a8.7 8.7 0 1 0 17.4 0 a8.7 8.7 0 1 0 -17.4 0zM1264.61 7269.94 a8.7 8.7 0 1 0 17.4 0 a8.7 8.7 0 1 0 -17.4 0zM1189.27 7313.44 a8.7 8.7 0 1 0 17.4 0 a8.7 8.7 0 1 0 -17.4 0zM1113.92 7269.94 a8.7 8.7 0 1 0 17.4 0 a8.7 8.7 0 1 0 -17.4 0zM1113.92 7182.94 a8.7 8.7 0 1 0 17.4 0 a8.7 8.7 0 1 0 -17.4 0zM1113.92 7791.94 a8.7 8.7 0 1 0 17.4 0 a8.7 8.7 0 1 0 -17.4 0zM1189.27 7835.44 a8.7 8.7 0 1 0 17.4 0 a8.7 8.7 0 1 0 -17.4 0zM1189.27 7922.44 a8.7 8.7 0 1 0 17.4 0 a8.7 8.7 0 1 0 -17.4 0zM1113.92 7965.94 a8.7 8.7 0 1 0 17.4 0 a8.7 8.7 0 1 0 -17.4 0zM1038.57 7922.44 a8.7 8.7 0 1 0 17.4 0 a8.7 8.7 0 1 0 -17.4 0zM1038.57 7835.44 a8.7 8.7 0 1 0 17.4 0 a8.7 8.7 0 1 0 -17.4 0zM1113.92 8052.94 a8.7 8.7 0 1 0 17.4 0 a8.7 8.7 0 1 0 -17.4 0zM1189.27 8096.44 a8.7 8.7 0 1 0 17.4 0 a8.7 8.7 0 1 0 -17.4 0zM1189.27 8183.44 a8.7 8.7 0 1 0 17.4 0 a8.7 8.7 0 1 0 -17.4 0zM1113.92 8226.94 a8.7 8.7 0 1 0 17.4 0 a8.7 8.7 0 1 0 -17.4 0zM1038.57 8183.44 a8.7 8.7 0 1 0 17.4 0 a8.7 8.7 0 1 0 -17.4 0zM1038.57 8096.44 a8.7 8.7 0 1 0 17.4 0 a8.7 8.7 0 1 0 -17.4 0zM1339.96 92.44 a8.7 8.7 0 1 0 17.4 0 a8.7 8.7 0 1 0 -17.4 0zM1415.3 135.94 a8.7 8.7 0 1 0 17.4 0 a8.7 8.7 0 1 0 -17.4 0zM1415.3 222.94 a8.7 8.7 0 1 0 17.4 0 a8.7 8.7 0 1 0 -17.4 0zM1339.96 266.44 a8.7 8.7 0 1 0 17.4 0 a8.7 8.7 0 1 0 -17.4 0zM1264.61 222.94 a8.7 8.7 0 1 0 17.4 0 a8.7 8.7 0 1 0 -17.4 0zM1264.61 135.94 a8.7 8.7 0 1 0 17.4 0 a8.7 8.7 0 1 0 -17.4 0zM1339.96 353.44 a8.7 8.7 0 1 0 17.4 0 a8.7 8.7 0 1 0 -17.4 0zM1415.3 396.94 a8.7 8.7 0 1 0 17.4 0 a8.7 8.7 0 1 0 -17.4 0zM1415.3 483.94 a8.7 8.7 0 1 0 17.4 0 a8.7 8.7 0 1 0 -17.4 0zM1339.96 527.44 a8.7 8.7 0 1 0 17.4 0 a8.7 8.7 0 1 0 -17.4 0zM1264.61 483.94 a8.7 8.7 0 1 0 17.4 0 a8.7 8.7 0 1 0 -17.4 0zM1264.61 396.94 a8.7 8.7 0 1 0 17.4 0 a8.7 8.7 0 1 0 -17.4 0zM1339.96 1310.44 a8.7 8.7 0 1 0 17.4 0 a8.7 8.7 0 1 0 -17.4 0zM1339.96 1397.44 a8.7 8.7 0 1 0 17.4 0 a8.7 8.7 0 1 0 -17.4 0zM1264.61 1440.94 a8.7 8.7 0 1 0 17.4 0 a8.7 8.7 0 1 0 -17.4 0zM1339.96 1658.44 a8.7 8.7 0 1 0 17.4 0 a8.7 8.7 0 1 0 -17.4 0zM1415.3 1701.94 a8.7 8.7 0 1 0 17.4 0 a8.7 8.7 0 1 0 -17.4 0zM1415.3 1788.94 a8.7 8.7 0 1 0 17.4 0 a8.7 8.7 0 1 0 -17.4 0zM1339.96 1832.44 a8.7 8.7 0 1 0 17.4 0 a8.7 8.7 0 1 0 -17.4 0zM1264.61 1788.94 a8.7 8.7 0 1 0 17.4 0 a8.7 8.7 0 1 0 -17.4 0zM1264.61 1701.94 a8.7 8.7 0 1 0 17.4 0 a8.7 8.7 0 1 0 -17.4 0zM1339.96 1919.44 a8.7 8.7 0 1 0 17.4 0 a8.7 8.7 0 1 0 -17.4 0zM1264.61 1962.94 a8.7 8.7 0 1 0 17.4 0 a8.7 8.7 0 1 0 -17.4 0zM1339.96 2441.44 a8.7 8.7 0 1 0 17.4 0 a8.7 8.7 0 1 0 -17.4 0zM1415.3 2484.94 a8.7 8.7 0 1 0 17.4 0 a8.7 8.7 0 1 0 -17.4 0zM1415.3 2571.94 a8.7 8.7 0 1 0 17.4 0 a8.7 8.7 0 1 0 -17.4 0zM1339.96 2615.44 a8.7 8.7 0 1 0 17.4 0 a8.7 8.7 0 1 0 -17.4 0zM1264.61 2571.94 a8.7 8.7 0 1 0 17.4 0 a8.7 8.7 0 1 0 -17.4 0zM1264.61 2484.94 a8.7 8.7 0 1 0 17.4 0 a8.7 8.7 0 1 0 -17.4 0zM1339.96 4007.44 a8.7 8.7 0 1 0 17.4 0 a8.7 8.7 0 1 0 -17.4 0zM1415.3 4050.94 a8.7 8.7 0 1 0 17.4 0 a8.7 8.7 0 1 0 -17.4 0zM1415.3 4137.94 a8.7 8.7 0 1 0 17.4 0 a8.7 8.7 0 1 0 -17.4 0zM1339.96 4181.44 a8.7 8.7 0 1 0 17.4 0 a8.7 8.7 0 1 0 -17.4 0zM1264.61 4137.94 a8.7 8.7 0 1 0 17.4 0 a8.7 8.7 0 1 0 -17.4 0zM1264.61 4050.94 a8.7 8.7 0 1 0 17.4 0 a8.7 8.7 0 1 0 -17.4 0zM1264.61 4398.94 a8.7 8.7 0 1 0 17.4 0 a8.7 8.7 0 1 0 -17.4 0zM1339.96 4442.44 a8.7 8.7 0 1 0 17.4 0 a8.7 8.7 0 1 0 -17.4 0zM1339.96 4529.44 a8.7 8.7 0 1 0 17.4 0 a8.7 8.7 0 1 0 -17.4 0zM1189.27 4442.44 a8.7 8.7 0 1 0 17.4 0 a8.7 8.7 0 1 0 -17.4 0zM1339.96 4703.44 a8.7 8.7 0 1 0 17.4 0 a8.7 8.7 0 1 0 -17.4 0zM1339.96 4790.44 a8.7 8.7 0 1 0 17.4 0 a8.7 8.7 0 1 0 -17.4 0zM1264.61 4833.94 a8.7 8.7 0 1 0 17.4 0 a8.7 8.7 0 1 0 -17.4 0zM1189.27 4790.44 a8.7 8.7 0 1 0 17.4 0 a8.7 8.7 0 1 0 -17.4 0zM1339.96 6356.44 a8.7 8.7 0 1 0 17.4 0 a8.7 8.7 0 1 0 -17.4 0zM1415.3 6399.94 a8.7 8.7 0 1 0 17.4 0 a8.7 8.7 0 1 0 -17.4 0zM1415.3 6486.94 a8.7 8.7 0 1 0 17.4 0 a8.7 8.7 0 1 0 -17.4 0zM1339.96 6530.44 a8.7 8.7 0 1 0 17.4 0 a8.7 8.7 0 1 0 -17.4 0zM1264.61 6486.94 a8.7 8.7 0 1 0 17.4 0 a8.7 8.7 0 1 0 -17.4 0zM1264.61 6399.94 a8.7 8.7 0 1 0 17.4 0 a8.7 8.7 0 1 0 -17.4 0zM1339.96 6617.44 a8.7 8.7 0 1 0 17.4 0 a8.7 8.7 0 1 0 -17.4 0zM1415.3 6660.94 a8.7 8.7 0 1 0 17.4 0 a8.7 8.7 0 1 0 -17.4 0zM1415.3 6747.94 a8.7 8.7 0 1 0 17.4 0 a8.7 8.7 0 1 0 -17.4 0zM1339.96 6791.44 a8.7 8.7 0 1 0 17.4 0 a8.7 8.7 0 1 0 -17.4 0zM1264.61 6747.94 a8.7 8.7 0 1 0 17.4 0 a8.7 8.7 0 1 0 -17.4 0zM1264.61 6660.94 a8.7 8.7 0 1 0 17.4 0 a8.7 8.7 0 1 0 -17.4 0zM1264.61 8052.94 a8.7 8.7 0 1 0 17.4 0 a8.7 8.7 0 1 0 -17.4 0zM1339.96 8096.44 a8.7 8.7 0 1 0 17.4 0 a8.7 8.7 0 1 0 -17.4 0zM1339.96 8183.44 a8.7 8.7 0 1 0 17.4 0 a8.7 8.7 0 1 0 -17.4 0zM1264.61 8226.94 a8.7 8.7 0 1 0 17.4 0 a8.7 8.7 0 1 0 -17.4 0zM1339.96 8444.44 a8.7 8.7 0 1 0 17.4 0 a8.7 8.7 0 1 0 -17.4 0zM1415.3 8487.94 a8.7 8.7 0 1 0 17.4 0 a8.7 8.7 0 1 0 -17.4 0zM1415.3 8574.94 a8.7 8.7 0 1 0 17.4 0 a8.7 8.7 0 1 0 -17.4 0zM1339.96 8618.44 a8.7 8.7 0 1 0 17.4 0 a8.7 8.7 0 1 0 -17.4 0zM1264.61 8574.94 a8.7 8.7 0 1 0 17.4 0 a8.7 8.7 0 1 0 -17.4 0zM1264.61 8487.94 a8.7 8.7 0 1 0 17.4 0 a8.7 8.7 0 1 0 -17.4 0zM1339.96 8705.44 a8.7 8.7 0 1 0 17.4 0 a8.7 8.7 0 1 0 -17.4 0zM1264.61 8748.94 a8.7 8.7 0 1 0 17.4 0 a8.7 8.7 0 1 0 -17.4 0zM1189.27 8705.44 a8.7 8.7 0 1 0 17.4 0 a8.7 8.7 0 1 0 -17.4 0zM1189.27 8618.44 a8.7 8.7 0 1 0 17.4 0 a8.7 8.7 0 1 0 -17.4 0zM1490.65 527.44 a8.7 8.7 0 1 0 17.4 0 a8.7 8.7 0 1 0 -17.4 0zM1490.65 614.44 a8.7 8.7 0 1 0 17.4 0 a8.7 8.7 0 1 0 -17.4 0zM1415.3 657.94 a8.7 8.7 0 1 0 17.4 0 a8.7 8.7 0 1 0 -17.4 0zM1339.96 614.44 a8.7 8.7 0 1 0 17.4 0 a8.7 8.7 0 1 0 -17.4 0zM1415.3 744.94 a8.7 8.7 0 1 0 17.4 0 a8.7 8.7 0 1 0 -17.4 0zM1490.65 788.44 a8.7 8.7 0 1 0 17.4 0 a8.7 8.7 0 1 0 -17.4 0zM1490.65 875.44 a8.7 8.7 0 1 0 17.4 0 a8.7 8.7 0 1 0 -17.4 0zM1415.3 918.94 a8.7 8.7 0 1 0 17.4 0 a8.7 8.7 0 1 0 -17.4 0zM1339.96 875.44 a8.7 8.7 0 1 0 17.4 0 a8.7 8.7 0 1 0 -17.4 0zM1339.96 788.44 a8.7 8.7 0 1 0 17.4 0 a8.7 8.7 0 1 0 -17.4 0zM1415.3 1266.94 a8.7 8.7 0 1 0 17.4 0 a8.7 8.7 0 1 0 -17.4 0zM1490.65 1310.44 a8.7 8.7 0 1 0 17.4 0 a8.7 8.7 0 1 0 -17.4 0zM1490.65 1397.44 a8.7 8.7 0 1 0 17.4 0 a8.7 8.7 0 1 0 -17.4 0zM1415.3 1440.94 a8.7 8.7 0 1 0 17.4 0 a8.7 8.7 0 1 0 -17.4 0zM1415.3 4659.94 a8.7 8.7 0 1 0 17.4 0 a8.7 8.7 0 1 0 -17.4 0zM1490.65 4703.44 a8.7 8.7 0 1 0 17.4 0 a8.7 8.7 0 1 0 -17.4 0zM1490.65 4790.44 a8.7 8.7 0 1 0 17.4 0 a8.7 8.7 0 1 0 -17.4 0zM1415.3 4833.94 a8.7 8.7 0 1 0 17.4 0 a8.7 8.7 0 1 0 -17.4 0zM1490.65 6878.44 a8.7 8.7 0 1 0 17.4 0 a8.7 8.7 0 1 0 -17.4 0zM1566 6921.94 a8.7 8.7 0 1 0 17.4 0 a8.7 8.7 0 1 0 -17.4 0zM1566 7008.94 a8.7 8.7 0 1 0 17.4 0 a8.7 8.7 0 1 0 -17.4 0zM1490.65 7052.44 a8.7 8.7 0 1 0 17.4 0 a8.7 8.7 0 1 0 -17.4 0zM1415.3 7008.94 a8.7 8.7 0 1 0 17.4 0 a8.7 8.7 0 1 0 -17.4 0zM1415.3 6921.94 a8.7 8.7 0 1 0 17.4 0 a8.7 8.7 0 1 0 -17.4 0zM1641.34 92.44 a8.7 8.7 0 1 0 17.4 0 a8.7 8.7 0 1 0 -17.4 0zM1716.69 135.94 a8.7 8.7 0 1 0 17.4 0 a8.7 8.7 0 1 0 -17.4 0zM1716.69 222.94 a8.7 8.7 0 1 0 17.4 0 a8.7 8.7 0 1 0 -17.4 0zM1641.34 266.44 a8.7 8.7 0 1 0 17.4 0 a8.7 8.7 0 1 0 -17.4 0zM1566 222.94 a8.7 8.7 0 1 0 17.4 0 a8.7 8.7 0 1 0 -17.4 0zM1566 135.94 a8.7 8.7 0 1 0 17.4 0 a8.7 8.7 0 1 0 -17.4 0zM1641.34 353.44 a8.7 8.7 0 1 0 17.4 0 a8.7 8.7 0 1 0 -17.4 0zM1566 396.94 a8.7 8.7 0 1 0 17.4 0 a8.7 8.7 0 1 0 -17.4 0zM1490.65 353.44 a8.7 8.7 0 1 0 17.4 0 a8.7 8.7 0 1 0 -17.4 0zM1490.65 266.44 a8.7 8.7 0 1 0 17.4 0 a8.7 8.7 0 1 0 -17.4 0zM1566 1266.94 a8.7 8.7 0 1 0 17.4 0 a8.7 8.7 0 1 0 -17.4 0zM1641.34 1310.44 a8.7 8.7 0 1 0 17.4 0 a8.7 8.7 0 1 0 -17.4 0zM1641.34 1397.44 a8.7 8.7 0 1 0 17.4 0 a8.7 8.7 0 1 0 -17.4 0zM1566 1440.94 a8.7 8.7 0 1 0 17.4 0 a8.7 8.7 0 1 0 -17.4 0zM1716.69 1440.94 a8.7 8.7 0 1 0 17.4 0 a8.7 8.7 0 1 0 -17.4 0zM1716.69 1527.94 a8.7 8.7 0 1 0 17.4 0 a8.7 8.7 0 1 0 -17.4 0zM1641.34 1571.44 a8.7 8.7 0 1 0 17.4 0 a8.7 8.7 0 1 0 -17.4 0zM1566 1527.94 a8.7 8.7 0 1 0 17.4 0 a8.7 8.7 0 1 0 -17.4 0zM1641.34 1658.44 a8.7 8.7 0 1 0 17.4 0 a8.7 8.7 0 1 0 -17.4 0zM1716.69 1701.94 a8.7 8.7 0 1 0 17.4 0 a8.7 8.7 0 1 0 -17.4 0zM1716.69 1788.94 a8.7 8.7 0 1 0 17.4 0 a8.7 8.7 0 1 0 -17.4 0zM1641.34 1832.44 a8.7 8.7 0 1 0 17.4 0 a8.7 8.7 0 1 0 -17.4 0zM1566 1788.94 a8.7 8.7 0 1 0 17.4 0 a8.7 8.7 0 1 0 -17.4 0zM1566 1701.94 a8.7 8.7 0 1 0 17.4 0 a8.7 8.7 0 1 0 -17.4 0zM1641.34 1919.44 a8.7 8.7 0 1 0 17.4 0 a8.7 8.7 0 1 0 -17.4 0zM1566 1962.94 a8.7 8.7 0 1 0 17.4 0 a8.7 8.7 0 1 0 -17.4 0zM1490.65 1919.44 a8.7 8.7 0 1 0 17.4 0 a8.7 8.7 0 1 0 -17.4 0zM1490.65 1832.44 a8.7 8.7 0 1 0 17.4 0 a8.7 8.7 0 1 0 -17.4 0zM1566 2310.94 a8.7 8.7 0 1 0 17.4 0 a8.7 8.7 0 1 0 -17.4 0zM1641.34 2354.44 a8.7 8.7 0 1 0 17.4 0 a8.7 8.7 0 1 0 -17.4 0zM1641.34 2441.44 a8.7 8.7 0 1 0 17.4 0 a8.7 8.7 0 1 0 -17.4 0zM1566 2484.94 a8.7 8.7 0 1 0 17.4 0 a8.7 8.7 0 1 0 -17.4 0zM1490.65 2441.44 a8.7 8.7 0 1 0 17.4 0 a8.7 8.7 0 1 0 -17.4 0zM1490.65 2354.44 a8.7 8.7 0 1 0 17.4 0 a8.7 8.7 0 1 0 -17.4 0zM1566 3093.94 a8.7 8.7 0 1 0 17.4 0 a8.7 8.7 0 1 0 -17.4 0zM1641.34 3137.44 a8.7 8.7 0 1 0 17.4 0 a8.7 8.7 0 1 0 -17.4 0zM1641.34 3224.44 a8.7 8.7 0 1 0 17.4 0 a8.7 8.7 0 1 0 -17.4 0zM1566 3267.94 a8.7 8.7 0 1 0 17.4 0 a8.7 8.7 0 1 0 -17.4 0zM1490.65 3224.44 a8.7 8.7 0 1 0 17.4 0 a8.7 8.7 0 1 0 -17.4 0zM1490.65 3137.44 a8.7 8.7 0 1 0 17.4 0 a8.7 8.7 0 1 0 -17.4 0zM1716.69 3267.94 a8.7 8.7 0 1 0 17.4 0 a8.7 8.7 0 1 0 -17.4 0zM1716.69 3354.94 a8.7 8.7 0 1 0 17.4 0 a8.7 8.7 0 1 0 -17.4 0zM1641.34 3398.44 a8.7 8.7 0 1 0 17.4 0 a8.7 8.7 0 1 0 -17.4 0zM1566 3354.94 a8.7 8.7 0 1 0 17.4 0 a8.7 8.7 0 1 0 -17.4 0zM1641.34 3485.44 a8.7 8.7 0 1 0 17.4 0 a8.7 8.7 0 1 0 -17.4 0zM1566 3528.94 a8.7 8.7 0 1 0 17.4 0 a8.7 8.7 0 1 0 -17.4 0zM1490.65 3485.44 a8.7 8.7 0 1 0 17.4 0 a8.7 8.7 0 1 0 -17.4 0zM1490.65 3398.44 a8.7 8.7 0 1 0 17.4 0 a8.7 8.7 0 1 0 -17.4 0zM1566 3615.94 a8.7 8.7 0 1 0 17.4 0 a8.7 8.7 0 1 0 -17.4 0zM1641.34 3659.44 a8.7 8.7 0 1 0 17.4 0 a8.7 8.7 0 1 0 -17.4 0zM1641.34 3746.44 a8.7 8.7 0 1 0 17.4 0 a8.7 8.7 0 1 0 -17.4 0zM1566 3789.94 a8.7 8.7 0 1 0 17.4 0 a8.7 8.7 0 1 0 -17.4 0zM1490.65 3746.44 a8.7 8.7 0 1 0 17.4 0 a8.7 8.7 0 1 0 -17.4 0zM1490.65 3659.44 a8.7 8.7 0 1 0 17.4 0 a8.7 8.7 0 1 0 -17.4 0zM1641.34 5573.44 a8.7 8.7 0 1 0 17.4 0 a8.7 8.7 0 1 0 -17.4 0zM1716.69 5616.94 a8.7 8.7 0 1 0 17.4 0 a8.7 8.7 0 1 0 -17.4 0zM1716.69 5703.94 a8.7 8.7 0 1 0 17.4 0 a8.7 8.7 0 1 0 -17.4 0zM1641.34 5747.44 a8.7 8.7 0 1 0 17.4 0 a8.7 8.7 0 1 0 -17.4 0zM1566 5703.94 a8.7 8.7 0 1 0 17.4 0 a8.7 8.7 0 1 0 -17.4 0zM1566 5616.94 a8.7 8.7 0 1 0 17.4 0 a8.7 8.7 0 1 0 -17.4 0zM1641.34 5834.44 a8.7 8.7 0 1 0 17.4 0 a8.7 8.7 0 1 0 -17.4 0zM1566 5877.94 a8.7 8.7 0 1 0 17.4 0 a8.7 8.7 0 1 0 -17.4 0zM1490.65 5834.44 a8.7 8.7 0 1 0 17.4 0 a8.7 8.7 0 1 0 -17.4 0zM1490.65 5747.44 a8.7 8.7 0 1 0 17.4 0 a8.7 8.7 0 1 0 -17.4 0zM1716.69 5877.94 a8.7 8.7 0 1 0 17.4 0 a8.7 8.7 0 1 0 -17.4 0zM1716.69 5964.94 a8.7 8.7 0 1 0 17.4 0 a8.7 8.7 0 1 0 -17.4 0zM1641.34 6008.44 a8.7 8.7 0 1 0 17.4 0 a8.7 8.7 0 1 0 -17.4 0zM1566 5964.94 a8.7 8.7 0 1 0 17.4 0 a8.7 8.7 0 1 0 -17.4 0zM1641.34 6356.44 a8.7 8.7 0 1 0 17.4 0 a8.7 8.7 0 1 0 -17.4 0zM1716.69 6399.94 a8.7 8.7 0 1 0 17.4 0 a8.7 8.7 0 1 0 -17.4 0zM1716.69 6486.94 a8.7 8.7 0 1 0 17.4 0 a8.7 8.7 0 1 0 -17.4 0zM1641.34 6530.44 a8.7 8.7 0 1 0 17.4 0 a8.7 8.7 0 1 0 -17.4 0zM1566 6486.94 a8.7 8.7 0 1 0 17.4 0 a8.7 8.7 0 1 0 -17.4 0zM1566 6399.94 a8.7 8.7 0 1 0 17.4 0 a8.7 8.7 0 1 0 -17.4 0zM1566 7791.94 a8.7 8.7 0 1 0 17.4 0 a8.7 8.7 0 1 0 -17.4 0zM1641.34 7835.44 a8.7 8.7 0 1 0 17.4 0 a8.7 8.7 0 1 0 -17.4 0zM1641.34 7922.44 a8.7 8.7 0 1 0 17.4 0 a8.7 8.7 0 1 0 -17.4 0zM1566 7965.94 a8.7 8.7 0 1 0 17.4 0 a8.7 8.7 0 1 0 -17.4 0zM1490.65 7922.44 a8.7 8.7 0 1 0 17.4 0 a8.7 8.7 0 1 0 -17.4 0zM1490.65 7835.44 a8.7 8.7 0 1 0 17.4 0 a8.7 8.7 0 1 0 -17.4 0zM1792.04 4268.44 a8.7 8.7 0 1 0 17.4 0 a8.7 8.7 0 1 0 -17.4 0zM1867.38 4311.94 a8.7 8.7 0 1 0 17.4 0 a8.7 8.7 0 1 0 -17.4 0zM1867.38 4398.94 a8.7 8.7 0 1 0 17.4 0 a8.7 8.7 0 1 0 -17.4 0zM1792.04 4442.44 a8.7 8.7 0 1 0 17.4 0 a8.7 8.7 0 1 0 -17.4 0zM1716.69 4398.94 a8.7 8.7 0 1 0 17.4 0 a8.7 8.7 0 1 0 -17.4 0zM1716.69 4311.94 a8.7 8.7 0 1 0 17.4 0 a8.7 8.7 0 1 0 -17.4 0zM1792.04 5834.44 a8.7 8.7 0 1 0 17.4 0 a8.7 8.7 0 1 0 -17.4 0zM1867.38 5877.94 a8.7 8.7 0 1 0 17.4 0 a8.7 8.7 0 1 0 -17.4 0zM1867.38 5964.94 a8.7 8.7 0 1 0 17.4 0 a8.7 8.7 0 1 0 -17.4 0zM1792.04 6008.44 a8.7 8.7 0 1 0 17.4 0 a8.7 8.7 0 1 0 -17.4 0zM1716.69 6225.94 a8.7 8.7 0 1 0 17.4 0 a8.7 8.7 0 1 0 -17.4 0zM1792.04 6269.44 a8.7 8.7 0 1 0 17.4 0 a8.7 8.7 0 1 0 -17.4 0zM1792.04 6356.44 a8.7 8.7 0 1 0 17.4 0 a8.7 8.7 0 1 0 -17.4 0zM1641.34 6269.44 a8.7 8.7 0 1 0 17.4 0 a8.7 8.7 0 1 0 -17.4 0zM1792.04 6530.44 a8.7 8.7 0 1 0 17.4 0 a8.7 8.7 0 1 0 -17.4 0zM1792.04 6617.44 a8.7 8.7 0 1 0 17.4 0 a8.7 8.7 0 1 0 -17.4 0zM1716.69 6660.94 a8.7 8.7 0 1 0 17.4 0 a8.7 8.7 0 1 0 -17.4 0zM1641.34 6617.44 a8.7 8.7 0 1 0 17.4 0 a8.7 8.7 0 1 0 -17.4 0zM1716.69 6747.94 a8.7 8.7 0 1 0 17.4 0 a8.7 8.7 0 1 0 -17.4 0zM1792.04 6791.44 a8.7 8.7 0 1 0 17.4 0 a8.7 8.7 0 1 0 -17.4 0zM1792.04 6878.44 a8.7 8.7 0 1 0 17.4 0 a8.7 8.7 0 1 0 -17.4 0zM1716.69 6921.94 a8.7 8.7 0 1 0 17.4 0 a8.7 8.7 0 1 0 -17.4 0zM1641.34 6878.44 a8.7 8.7 0 1 0 17.4 0 a8.7 8.7 0 1 0 -17.4 0zM1641.34 6791.44 a8.7 8.7 0 1 0 17.4 0 a8.7 8.7 0 1 0 -17.4 0zM1716.69 7791.94 a8.7 8.7 0 1 0 17.4 0 a8.7 8.7 0 1 0 -17.4 0zM1792.04 7835.44 a8.7 8.7 0 1 0 17.4 0 a8.7 8.7 0 1 0 -17.4 0zM1792.04 7922.44 a8.7 8.7 0 1 0 17.4 0 a8.7 8.7 0 1 0 -17.4 0zM1716.69 7965.94 a8.7 8.7 0 1 0 17.4 0 a8.7 8.7 0 1 0 -17.4 0zM1792.04 8183.44 a8.7 8.7 0 1 0 17.4 0 a8.7 8.7 0 1 0 -17.4 0zM1867.38 8226.94 a8.7 8.7 0 1 0 17.4 0 a8.7 8.7 0 1 0 -17.4 0zM1867.38 8313.94 a8.7 8.7 0 1 0 17.4 0 a8.7 8.7 0 1 0 -17.4 0zM1792.04 8357.44 a8.7 8.7 0 1 0 17.4 0 a8.7 8.7 0 1 0 -17.4 0zM1716.69 8313.94 a8.7 8.7 0 1 0 17.4 0 a8.7 8.7 0 1 0 -17.4 0zM1716.69 8226.94 a8.7 8.7 0 1 0 17.4 0 a8.7 8.7 0 1 0 -17.4 0zM1792.04 8444.44 a8.7 8.7 0 1 0 17.4 0 a8.7 8.7 0 1 0 -17.4 0zM1716.69 8487.94 a8.7 8.7 0 1 0 17.4 0 a8.7 8.7 0 1 0 -17.4 0zM1641.34 8444.44 a8.7 8.7 0 1 0 17.4 0 a8.7 8.7 0 1 0 -17.4 0zM1641.34 8357.44 a8.7 8.7 0 1 0 17.4 0 a8.7 8.7 0 1 0 -17.4 0zM1716.69 8835.94 a8.7 8.7 0 1 0 17.4 0 a8.7 8.7 0 1 0 -17.4 0zM1792.04 8879.44 a8.7 8.7 0 1 0 17.4 0 a8.7 8.7 0 1 0 -17.4 0zM1792.04 8966.44 a8.7 8.7 0 1 0 17.4 0 a8.7 8.7 0 1 0 -17.4 0zM1716.69 9009.94 a8.7 8.7 0 1 0 17.4 0 a8.7 8.7 0 1 0 -17.4 0zM1641.34 8966.44 a8.7 8.7 0 1 0 17.4 0 a8.7 8.7 0 1 0 -17.4 0zM1641.34 8879.44 a8.7 8.7 0 1 0 17.4 0 a8.7 8.7 0 1 0 -17.4 0zM1867.38 9009.94 a8.7 8.7 0 1 0 17.4 0 a8.7 8.7 0 1 0 -17.4 0zM1867.38 9096.94 a8.7 8.7 0 1 0 17.4 0 a8.7 8.7 0 1 0 -17.4 0zM1792.04 9140.44 a8.7 8.7 0 1 0 17.4 0 a8.7 8.7 0 1 0 -17.4 0zM1716.69 9096.94 a8.7 8.7 0 1 0 17.4 0 a8.7 8.7 0 1 0 -17.4 0zM1942.73 92.44 a8.7 8.7 0 1 0 17.4 0 a8.7 8.7 0 1 0 -17.4 0zM2018.08 135.94 a8.7 8.7 0 1 0 17.4 0 a8.7 8.7 0 1 0 -17.4 0zM2018.08 222.94 a8.7 8.7 0 1 0 17.4 0 a8.7 8.7 0 1 0 -17.4 0zM1942.73 266.44 a8.7 8.7 0 1 0 17.4 0 a8.7 8.7 0 1 0 -17.4 0zM1867.38 222.94 a8.7 8.7 0 1 0 17.4 0 a8.7 8.7 0 1 0 -17.4 0zM1867.38 135.94 a8.7 8.7 0 1 0 17.4 0 a8.7 8.7 0 1 0 -17.4 0zM1942.73 353.44 a8.7 8.7 0 1 0 17.4 0 a8.7 8.7 0 1 0 -17.4 0zM2018.08 396.94 a8.7 8.7 0 1 0 17.4 0 a8.7 8.7 0 1 0 -17.4 0zM2018.08 483.94 a8.7 8.7 0 1 0 17.4 0 a8.7 8.7 0 1 0 -17.4 0zM1942.73 527.44 a8.7 8.7 0 1 0 17.4 0 a8.7 8.7 0 1 0 -17.4 0zM1867.38 483.94 a8.7 8.7 0 1 0 17.4 0 a8.7 8.7 0 1 0 -17.4 0zM1867.38 396.94 a8.7 8.7 0 1 0 17.4 0 a8.7 8.7 0 1 0 -17.4 0zM1942.73 1658.44 a8.7 8.7 0 1 0 17.4 0 a8.7 8.7 0 1 0 -17.4 0zM2018.08 1701.94 a8.7 8.7 0 1 0 17.4 0 a8.7 8.7 0 1 0 -17.4 0zM2018.08 1788.94 a8.7 8.7 0 1 0 17.4 0 a8.7 8.7 0 1 0 -17.4 0zM1942.73 1832.44 a8.7 8.7 0 1 0 17.4 0 a8.7 8.7 0 1 0 -17.4 0zM1867.38 1788.94 a8.7 8.7 0 1 0 17.4 0 a8.7 8.7 0 1 0 -17.4 0zM1867.38 1701.94 a8.7 8.7 0 1 0 17.4 0 a8.7 8.7 0 1 0 -17.4 0zM1942.73 4442.44 a8.7 8.7 0 1 0 17.4 0 a8.7 8.7 0 1 0 -17.4 0zM1942.73 4529.44 a8.7 8.7 0 1 0 17.4 0 a8.7 8.7 0 1 0 -17.4 0zM1867.38 4572.94 a8.7 8.7 0 1 0 17.4 0 a8.7 8.7 0 1 0 -17.4 0zM1792.04 4529.44 a8.7 8.7 0 1 0 17.4 0 a8.7 8.7 0 1 0 -17.4 0zM1942.73 5312.44 a8.7 8.7 0 1 0 17.4 0 a8.7 8.7 0 1 0 -17.4 0zM2018.08 5355.94 a8.7 8.7 0 1 0 17.4 0 a8.7 8.7 0 1 0 -17.4 0zM2018.08 5442.94 a8.7 8.7 0 1 0 17.4 0 a8.7 8.7 0 1 0 -17.4 0zM1942.73 5486.44 a8.7 8.7 0 1 0 17.4 0 a8.7 8.7 0 1 0 -17.4 0zM1867.38 5442.94 a8.7 8.7 0 1 0 17.4 0 a8.7 8.7 0 1 0 -17.4 0zM1867.38 5355.94 a8.7 8.7 0 1 0 17.4 0 a8.7 8.7 0 1 0 -17.4 0zM1942.73 6008.44 a8.7 8.7 0 1 0 17.4 0 a8.7 8.7 0 1 0 -17.4 0zM1942.73 6095.44 a8.7 8.7 0 1 0 17.4 0 a8.7 8.7 0 1 0 -17.4 0zM1867.38 6138.94 a8.7 8.7 0 1 0 17.4 0 a8.7 8.7 0 1 0 -17.4 0zM1792.04 6095.44 a8.7 8.7 0 1 0 17.4 0 a8.7 8.7 0 1 0 -17.4 0zM1942.73 7139.44 a8.7 8.7 0 1 0 17.4 0 a8.7 8.7 0 1 0 -17.4 0zM2018.08 7182.94 a8.7 8.7 0 1 0 17.4 0 a8.7 8.7 0 1 0 -17.4 0zM2018.08 7269.94 a8.7 8.7 0 1 0 17.4 0 a8.7 8.7 0 1 0 -17.4 0zM1942.73 7313.44 a8.7 8.7 0 1 0 17.4 0 a8.7 8.7 0 1 0 -17.4 0zM1867.38 7269.94 a8.7 8.7 0 1 0 17.4 0 a8.7 8.7 0 1 0 -17.4 0zM1867.38 7182.94 a8.7 8.7 0 1 0 17.4 0 a8.7 8.7 0 1 0 -17.4 0zM1942.73 7661.44 a8.7 8.7 0 1 0 17.4 0 a8.7 8.7 0 1 0 -17.4 0zM2018.08 7704.94 a8.7 8.7 0 1 0 17.4 0 a8.7 8.7 0 1 0 -17.4 0zM2018.08 7791.94 a8.7 8.7 0 1 0 17.4 0 a8.7 8.7 0 1 0 -17.4 0zM1942.73 7835.44 a8.7 8.7 0 1 0 17.4 0 a8.7 8.7 0 1 0 -17.4 0zM1867.38 7791.94 a8.7 8.7 0 1 0 17.4 0 a8.7 8.7 0 1 0 -17.4 0zM1867.38 7704.94 a8.7 8.7 0 1 0 17.4 0 a8.7 8.7 0 1 0 -17.4 0zM1867.38 8574.94 a8.7 8.7 0 1 0 17.4 0 a8.7 8.7 0 1 0 -17.4 0zM1942.73 8618.44 a8.7 8.7 0 1 0 17.4 0 a8.7 8.7 0 1 0 -17.4 0zM1942.73 8705.44 a8.7 8.7 0 1 0 17.4 0 a8.7 8.7 0 1 0 -17.4 0zM1867.38 8748.94 a8.7 8.7 0 1 0 17.4 0 a8.7 8.7 0 1 0 -17.4 0zM1792.04 8705.44 a8.7 8.7 0 1 0 17.4 0 a8.7 8.7 0 1 0 -17.4 0zM1792.04 8618.44 a8.7 8.7 0 1 0 17.4 0 a8.7 8.7 0 1 0 -17.4 0z" fill="rgba(68, 68, 68, 0.58)"></path><path d="M84.88 389.47L166.29 436.47L166.29 530.47L84.88 577.47L3.47 530.47L3.47 436.47zM3.47 812.47L84.88 859.47L84.88 953.47L3.47 1000.47L-77.94 953.47L-77.94 859.47zM3.47 1094.47L84.88 1141.47L84.88 1235.47L3.47 1282.47L-77.94 1235.47L-77.94 1141.47zM84.88 2363.47L166.29 2410.47L166.29 2504.47L84.88 2551.47L3.47 2504.47L3.47 2410.47zM3.47 2504.47L84.88 2551.47L84.88 2645.47L3.47 2692.47L-77.94 2645.47L-77.94 2551.47zM3.47 3350.47L84.88 3397.47L84.88 3491.47L3.47 3538.47L-77.94 3491.47L-77.94 3397.47zM3.47 4196.47L84.88 4243.47L84.88 4337.47L3.47 4384.47L-77.94 4337.47L-77.94 4243.47zM84.88 4337.47L166.29 4384.47L166.29 4478.47L84.88 4525.47L3.47 4478.47L3.47 4384.47zM3.47 4478.47L84.88 4525.47L84.88 4619.47L3.47 4666.47L-77.94 4619.47L-77.94 4525.47zM3.47 4760.47L84.88 4807.47L84.88 4901.47L3.47 4948.47L-77.94 4901.47L-77.94 4807.47zM84.88 5465.47L166.29 5512.47L166.29 5606.47L84.88 5653.47L3.47 5606.47L3.47 5512.47zM3.47 5606.47L84.88 5653.47L84.88 5747.47L3.47 5794.47L-77.94 5747.47L-77.94 5653.47zM84.88 6875.47L166.29 6922.47L166.29 7016.47L84.88 7063.47L3.47 7016.47L3.47 6922.47zM3.47 7298.47L84.88 7345.47L84.88 7439.47L3.47 7486.47L-77.94 7439.47L-77.94 7345.47zM3.47 7580.47L84.88 7627.47L84.88 7721.47L3.47 7768.47L-77.94 7721.47L-77.94 7627.47zM3.47 8144.47L84.88 8191.47L84.88 8285.47L3.47 8332.47L-77.94 8285.47L-77.94 8191.47zM3.47 8426.47L84.88 8473.47L84.88 8567.47L3.47 8614.47L-77.94 8567.47L-77.94 8473.47zM84.88 8567.47L166.29 8614.47L166.29 8708.47L84.88 8755.47L3.47 8708.47L3.47 8614.47zM166.29 530.47L247.7 577.47L247.7 671.47L166.29 718.47L84.88 671.47L84.88 577.47zM247.7 1235.47L329.1 1282.47L329.1 1376.47L247.7 1423.47L166.29 1376.47L166.29 1282.47zM247.7 1799.47L329.1 1846.47L329.1 1940.47L247.7 1987.47L166.29 1940.47L166.29 1846.47zM166.29 2222.47L247.7 2269.47L247.7 2363.47L166.29 2410.47L84.88 2363.47L84.88 2269.47zM166.29 3632.47L247.7 3679.47L247.7 3773.47L166.29 3820.47L84.88 3773.47L84.88 3679.47zM247.7 4901.47L329.1 4948.47L329.1 5042.47L247.7 5089.47L166.29 5042.47L166.29 4948.47zM166.29 5606.47L247.7 5653.47L247.7 5747.47L166.29 5794.47L84.88 5747.47L84.88 5653.47zM166.29 5888.47L247.7 5935.47L247.7 6029.47L166.29 6076.47L84.88 6029.47L84.88 5935.47zM247.7 6029.47L329.1 6076.47L329.1 6170.47L247.7 6217.47L166.29 6170.47L166.29 6076.47zM166.29 6734.47L247.7 6781.47L247.7 6875.47L166.29 6922.47L84.88 6875.47L84.88 6781.47zM166.29 7016.47L247.7 7063.47L247.7 7157.47L166.29 7204.47L84.88 7157.47L84.88 7063.47zM247.7 7439.47L329.1 7486.47L329.1 7580.47L247.7 7627.47L166.29 7580.47L166.29 7486.47zM166.29 8144.47L247.7 8191.47L247.7 8285.47L166.29 8332.47L84.88 8285.47L84.88 8191.47zM410.51 107.47L491.92 154.47L491.92 248.47L410.51 295.47L329.1 248.47L329.1 154.47zM329.1 530.47L410.51 577.47L410.51 671.47L329.1 718.47L247.7 671.47L247.7 577.47zM410.51 1517.47L491.92 1564.47L491.92 1658.47L410.51 1705.47L329.1 1658.47L329.1 1564.47zM410.51 2363.47L491.92 2410.47L491.92 2504.47L410.51 2551.47L329.1 2504.47L329.1 2410.47zM410.51 2645.47L491.92 2692.47L491.92 2786.47L410.51 2833.47L329.1 2786.47L329.1 2692.47zM329.1 3632.47L410.51 3679.47L410.51 3773.47L329.1 3820.47L247.7 3773.47L247.7 3679.47zM329.1 3914.47L410.51 3961.47L410.51 4055.47L329.1 4102.47L247.7 4055.47L247.7 3961.47zM329.1 5888.47L410.51 5935.47L410.51 6029.47L329.1 6076.47L247.7 6029.47L247.7 5935.47zM410.51 6029.47L491.92 6076.47L491.92 6170.47L410.51 6217.47L329.1 6170.47L329.1 6076.47zM410.51 6311.47L491.92 6358.47L491.92 6452.47L410.51 6499.47L329.1 6452.47L329.1 6358.47zM410.51 6875.47L491.92 6922.47L491.92 7016.47L410.51 7063.47L329.1 7016.47L329.1 6922.47zM329.1 7862.47L410.51 7909.47L410.51 8003.47L329.1 8050.47L247.7 8003.47L247.7 7909.47zM329.1 8144.47L410.51 8191.47L410.51 8285.47L329.1 8332.47L247.7 8285.47L247.7 8191.47zM410.51 8849.47L491.92 8896.47L491.92 8990.47L410.51 9037.47L329.1 8990.47L329.1 8896.47zM491.92 812.47L573.33 859.47L573.33 953.47L491.92 1000.47L410.51 953.47L410.51 859.47zM491.92 1094.47L573.33 1141.47L573.33 1235.47L491.92 1282.47L410.51 1235.47L410.51 1141.47zM491.92 2786.47L573.33 2833.47L573.33 2927.47L491.92 2974.47L410.51 2927.47L410.51 2833.47zM491.92 3350.47L573.33 3397.47L573.33 3491.47L491.92 3538.47L410.51 3491.47L410.51 3397.47zM573.33 3491.47L654.74 3538.47L654.74 3632.47L573.33 3679.47L491.92 3632.47L491.92 3538.47zM573.33 4055.47L654.74 4102.47L654.74 4196.47L573.33 4243.47L491.92 4196.47L491.92 4102.47zM491.92 4760.47L573.33 4807.47L573.33 4901.47L491.92 4948.47L410.51 4901.47L410.51 4807.47zM491.92 5042.47L573.33 5089.47L573.33 5183.47L491.92 5230.47L410.51 5183.47L410.51 5089.47zM573.33 5747.47L654.74 5794.47L654.74 5888.47L573.33 5935.47L491.92 5888.47L491.92 5794.47zM491.92 5888.47L573.33 5935.47L573.33 6029.47L491.92 6076.47L410.51 6029.47L410.51 5935.47zM573.33 6593.47L654.74 6640.47L654.74 6734.47L573.33 6781.47L491.92 6734.47L491.92 6640.47zM491.92 6734.47L573.33 6781.47L573.33 6875.47L491.92 6922.47L410.51 6875.47L410.51 6781.47zM491.92 7298.47L573.33 7345.47L573.33 7439.47L491.92 7486.47L410.51 7439.47L410.51 7345.47zM573.33 7439.47L654.74 7486.47L654.74 7580.47L573.33 7627.47L491.92 7580.47L491.92 7486.47zM491.92 8144.47L573.33 8191.47L573.33 8285.47L491.92 8332.47L410.51 8285.47L410.51 8191.47zM573.33 8285.47L654.74 8332.47L654.74 8426.47L573.33 8473.47L491.92 8426.47L491.92 8332.47zM491.92 8426.47L573.33 8473.47L573.33 8567.47L491.92 8614.47L410.51 8567.47L410.51 8473.47zM573.33 8567.47L654.74 8614.47L654.74 8708.47L573.33 8755.47L491.92 8708.47L491.92 8614.47zM491.92 8990.47L573.33 9037.47L573.33 9131.47L491.92 9178.47L410.51 9131.47L410.51 9037.47zM654.74 -33.53L736.15 13.47L736.15 107.47L654.74 154.47L573.33 107.47L573.33 13.47zM736.15 107.47L817.56 154.47L817.56 248.47L736.15 295.47L654.74 248.47L654.74 154.47zM736.15 671.47L817.56 718.47L817.56 812.47L736.15 859.47L654.74 812.47L654.74 718.47zM654.74 812.47L736.15 859.47L736.15 953.47L654.74 1000.47L573.33 953.47L573.33 859.47zM736.15 953.47L817.56 1000.47L817.56 1094.47L736.15 1141.47L654.74 1094.47L654.74 1000.47zM736.15 1235.47L817.56 1282.47L817.56 1376.47L736.15 1423.47L654.74 1376.47L654.74 1282.47zM736.15 2081.47L817.56 2128.47L817.56 2222.47L736.15 2269.47L654.74 2222.47L654.74 2128.47zM736.15 2363.47L817.56 2410.47L817.56 2504.47L736.15 2551.47L654.74 2504.47L654.74 2410.47zM654.74 2504.47L736.15 2551.47L736.15 2645.47L654.74 2692.47L573.33 2645.47L573.33 2551.47zM654.74 2786.47L736.15 2833.47L736.15 2927.47L654.74 2974.47L573.33 2927.47L573.33 2833.47zM736.15 2927.47L817.56 2974.47L817.56 3068.47L736.15 3115.47L654.74 3068.47L654.74 2974.47zM654.74 3632.47L736.15 3679.47L736.15 3773.47L654.74 3820.47L573.33 3773.47L573.33 3679.47zM654.74 3914.47L736.15 3961.47L736.15 4055.47L654.74 4102.47L573.33 4055.47L573.33 3961.47zM654.74 4760.47L736.15 4807.47L736.15 4901.47L654.74 4948.47L573.33 4901.47L573.33 4807.47zM654.74 5606.47L736.15 5653.47L736.15 5747.47L654.74 5794.47L573.33 5747.47L573.33 5653.47zM736.15 5747.47L817.56 5794.47L817.56 5888.47L736.15 5935.47L654.74 5888.47L654.74 5794.47zM736.15 6029.47L817.56 6076.47L817.56 6170.47L736.15 6217.47L654.74 6170.47L654.74 6076.47zM654.74 6452.47L736.15 6499.47L736.15 6593.47L654.74 6640.47L573.33 6593.47L573.33 6499.47zM654.74 7016.47L736.15 7063.47L736.15 7157.47L654.74 7204.47L573.33 7157.47L573.33 7063.47zM736.15 7439.47L817.56 7486.47L817.56 7580.47L736.15 7627.47L654.74 7580.47L654.74 7486.47zM654.74 7580.47L736.15 7627.47L736.15 7721.47L654.74 7768.47L573.33 7721.47L573.33 7627.47zM736.15 7721.47L817.56 7768.47L817.56 7862.47L736.15 7909.47L654.74 7862.47L654.74 7768.47zM736.15 8003.47L817.56 8050.47L817.56 8144.47L736.15 8191.47L654.74 8144.47L654.74 8050.47zM736.15 8285.47L817.56 8332.47L817.56 8426.47L736.15 8473.47L654.74 8426.47L654.74 8332.47zM736.15 8567.47L817.56 8614.47L817.56 8708.47L736.15 8755.47L654.74 8708.47L654.74 8614.47zM654.74 8708.47L736.15 8755.47L736.15 8849.47L654.74 8896.47L573.33 8849.47L573.33 8755.47zM817.56 -33.53L898.97 13.47L898.97 107.47L817.56 154.47L736.15 107.47L736.15 13.47zM898.97 389.47L980.37 436.47L980.37 530.47L898.97 577.47L817.56 530.47L817.56 436.47zM898.97 953.47L980.37 1000.47L980.37 1094.47L898.97 1141.47L817.56 1094.47L817.56 1000.47zM817.56 1094.47L898.97 1141.47L898.97 1235.47L817.56 1282.47L736.15 1235.47L736.15 1141.47zM898.97 1799.47L980.37 1846.47L980.37 1940.47L898.97 1987.47L817.56 1940.47L817.56 1846.47zM898.97 2081.47L980.37 2128.47L980.37 2222.47L898.97 2269.47L817.56 2222.47L817.56 2128.47zM817.56 2786.47L898.97 2833.47L898.97 2927.47L817.56 2974.47L736.15 2927.47L736.15 2833.47zM898.97 2927.47L980.37 2974.47L980.37 3068.47L898.97 3115.47L817.56 3068.47L817.56 2974.47zM898.97 3209.47L980.37 3256.47L980.37 3350.47L898.97 3397.47L817.56 3350.47L817.56 3256.47zM898.97 3491.47L980.37 3538.47L980.37 3632.47L898.97 3679.47L817.56 3632.47L817.56 3538.47zM898.97 4619.47L980.37 4666.47L980.37 4760.47L898.97 4807.47L817.56 4760.47L817.56 4666.47zM898.97 4901.47L980.37 4948.47L980.37 5042.47L898.97 5089.47L817.56 5042.47L817.56 4948.47zM817.56 6452.47L898.97 6499.47L898.97 6593.47L817.56 6640.47L736.15 6593.47L736.15 6499.47zM817.56 6734.47L898.97 6781.47L898.97 6875.47L817.56 6922.47L736.15 6875.47L736.15 6781.47zM817.56 7580.47L898.97 7627.47L898.97 7721.47L817.56 7768.47L736.15 7721.47L736.15 7627.47zM817.56 7862.47L898.97 7909.47L898.97 8003.47L817.56 8050.47L736.15 8003.47L736.15 7909.47zM898.97 8003.47L980.37 8050.47L980.37 8144.47L898.97 8191.47L817.56 8144.47L817.56 8050.47zM817.56 8144.47L898.97 8191.47L898.97 8285.47L817.56 8332.47L736.15 8285.47L736.15 8191.47zM817.56 8708.47L898.97 8755.47L898.97 8849.47L817.56 8896.47L736.15 8849.47L736.15 8755.47zM1061.78 389.47L1143.19 436.47L1143.19 530.47L1061.78 577.47L980.37 530.47L980.37 436.47zM1061.78 2363.47L1143.19 2410.47L1143.19 2504.47L1061.78 2551.47L980.37 2504.47L980.37 2410.47zM1061.78 2645.47L1143.19 2692.47L1143.19 2786.47L1061.78 2833.47L980.37 2786.47L980.37 2692.47zM980.37 2786.47L1061.78 2833.47L1061.78 2927.47L980.37 2974.47L898.97 2927.47L898.97 2833.47zM1061.78 3209.47L1143.19 3256.47L1143.19 3350.47L1061.78 3397.47L980.37 3350.47L980.37 3256.47zM980.37 3350.47L1061.78 3397.47L1061.78 3491.47L980.37 3538.47L898.97 3491.47L898.97 3397.47zM980.37 3914.47L1061.78 3961.47L1061.78 4055.47L980.37 4102.47L898.97 4055.47L898.97 3961.47zM980.37 4760.47L1061.78 4807.47L1061.78 4901.47L980.37 4948.47L898.97 4901.47L898.97 4807.47zM1061.78 5183.47L1143.19 5230.47L1143.19 5324.47L1061.78 5371.47L980.37 5324.47L980.37 5230.47zM980.37 5324.47L1061.78 5371.47L1061.78 5465.47L980.37 5512.47L898.97 5465.47L898.97 5371.47zM980.37 7298.47L1061.78 7345.47L1061.78 7439.47L980.37 7486.47L898.97 7439.47L898.97 7345.47zM1061.78 8567.47L1143.19 8614.47L1143.19 8708.47L1061.78 8755.47L980.37 8708.47L980.37 8614.47zM980.37 8990.47L1061.78 9037.47L1061.78 9131.47L980.37 9178.47L898.97 9131.47L898.97 9037.47zM1143.19 -33.53L1224.6 13.47L1224.6 107.47L1143.19 154.47L1061.78 107.47L1061.78 13.47zM1224.6 107.47L1306.01 154.47L1306.01 248.47L1224.6 295.47L1143.19 248.47L1143.19 154.47zM1143.19 248.47L1224.6 295.47L1224.6 389.47L1143.19 436.47L1061.78 389.47L1061.78 295.47zM1143.19 530.47L1224.6 577.47L1224.6 671.47L1143.19 718.47L1061.78 671.47L1061.78 577.47zM1224.6 671.47L1306.01 718.47L1306.01 812.47L1224.6 859.47L1143.19 812.47L1143.19 718.47zM1143.19 812.47L1224.6 859.47L1224.6 953.47L1143.19 1000.47L1061.78 953.47L1061.78 859.47zM1224.6 953.47L1306.01 1000.47L1306.01 1094.47L1224.6 1141.47L1143.19 1094.47L1143.19 1000.47zM1224.6 1235.47L1306.01 1282.47L1306.01 1376.47L1224.6 1423.47L1143.19 1376.47L1143.19 1282.47zM1224.6 1517.47L1306.01 1564.47L1306.01 1658.47L1224.6 1705.47L1143.19 1658.47L1143.19 1564.47zM1143.19 1658.47L1224.6 1705.47L1224.6 1799.47L1143.19 1846.47L1061.78 1799.47L1061.78 1705.47zM1224.6 2081.47L1306.01 2128.47L1306.01 2222.47L1224.6 2269.47L1143.19 2222.47L1143.19 2128.47zM1224.6 2645.47L1306.01 2692.47L1306.01 2786.47L1224.6 2833.47L1143.19 2786.47L1143.19 2692.47zM1143.19 2786.47L1224.6 2833.47L1224.6 2927.47L1143.19 2974.47L1061.78 2927.47L1061.78 2833.47zM1224.6 2927.47L1306.01 2974.47L1306.01 3068.47L1224.6 3115.47L1143.19 3068.47L1143.19 2974.47zM1224.6 4337.47L1306.01 4384.47L1306.01 4478.47L1224.6 4525.47L1143.19 4478.47L1143.19 4384.47zM1143.19 4760.47L1224.6 4807.47L1224.6 4901.47L1143.19 4948.47L1061.78 4901.47L1061.78 4807.47zM1224.6 5183.47L1306.01 5230.47L1306.01 5324.47L1224.6 5371.47L1143.19 5324.47L1143.19 5230.47zM1224.6 5747.47L1306.01 5794.47L1306.01 5888.47L1224.6 5935.47L1143.19 5888.47L1143.19 5794.47zM1224.6 6311.47L1306.01 6358.47L1306.01 6452.47L1224.6 6499.47L1143.19 6452.47L1143.19 6358.47zM1143.19 7016.47L1224.6 7063.47L1224.6 7157.47L1143.19 7204.47L1061.78 7157.47L1061.78 7063.47zM1143.19 7298.47L1224.6 7345.47L1224.6 7439.47L1143.19 7486.47L1061.78 7439.47L1061.78 7345.47zM1143.19 7580.47L1224.6 7627.47L1224.6 7721.47L1143.19 7768.47L1061.78 7721.47L1061.78 7627.47zM1224.6 7721.47L1306.01 7768.47L1306.01 7862.47L1224.6 7909.47L1143.19 7862.47L1143.19 7768.47zM1143.19 8990.47L1224.6 9037.47L1224.6 9131.47L1143.19 9178.47L1061.78 9131.47L1061.78 9037.47zM1306.01 248.47L1387.42 295.47L1387.42 389.47L1306.01 436.47L1224.6 389.47L1224.6 295.47zM1387.42 1235.47L1468.83 1282.47L1468.83 1376.47L1387.42 1423.47L1306.01 1376.47L1306.01 1282.47zM1387.42 1517.47L1468.83 1564.47L1468.83 1658.47L1387.42 1705.47L1306.01 1658.47L1306.01 1564.47zM1306.01 1658.47L1387.42 1705.47L1387.42 1799.47L1306.01 1846.47L1224.6 1799.47L1224.6 1705.47zM1306.01 1940.47L1387.42 1987.47L1387.42 2081.47L1306.01 2128.47L1224.6 2081.47L1224.6 1987.47zM1306.01 2504.47L1387.42 2551.47L1387.42 2645.47L1306.01 2692.47L1224.6 2645.47L1224.6 2551.47zM1387.42 2645.47L1468.83 2692.47L1468.83 2786.47L1387.42 2833.47L1306.01 2786.47L1306.01 2692.47zM1387.42 3491.47L1468.83 3538.47L1468.83 3632.47L1387.42 3679.47L1306.01 3632.47L1306.01 3538.47zM1387.42 3773.47L1468.83 3820.47L1468.83 3914.47L1387.42 3961.47L1306.01 3914.47L1306.01 3820.47zM1387.42 4055.47L1468.83 4102.47L1468.83 4196.47L1387.42 4243.47L1306.01 4196.47L1306.01 4102.47zM1387.42 4337.47L1468.83 4384.47L1468.83 4478.47L1387.42 4525.47L1306.01 4478.47L1306.01 4384.47zM1306.01 4478.47L1387.42 4525.47L1387.42 4619.47L1306.01 4666.47L1224.6 4619.47L1224.6 4525.47zM1387.42 4901.47L1468.83 4948.47L1468.83 5042.47L1387.42 5089.47L1306.01 5042.47L1306.01 4948.47zM1387.42 5747.47L1468.83 5794.47L1468.83 5888.47L1387.42 5935.47L1306.01 5888.47L1306.01 5794.47zM1306.01 7298.47L1387.42 7345.47L1387.42 7439.47L1306.01 7486.47L1224.6 7439.47L1224.6 7345.47zM1387.42 7439.47L1468.83 7486.47L1468.83 7580.47L1387.42 7627.47L1306.01 7580.47L1306.01 7486.47zM1306.01 7580.47L1387.42 7627.47L1387.42 7721.47L1306.01 7768.47L1224.6 7721.47L1224.6 7627.47zM1306.01 7862.47L1387.42 7909.47L1387.42 8003.47L1306.01 8050.47L1224.6 8003.47L1224.6 7909.47zM1306.01 8144.47L1387.42 8191.47L1387.42 8285.47L1306.01 8332.47L1224.6 8285.47L1224.6 8191.47zM1306.01 8708.47L1387.42 8755.47L1387.42 8849.47L1306.01 8896.47L1224.6 8849.47L1224.6 8755.47zM1468.83 530.47L1550.24 577.47L1550.24 671.47L1468.83 718.47L1387.42 671.47L1387.42 577.47zM1468.83 1094.47L1550.24 1141.47L1550.24 1235.47L1468.83 1282.47L1387.42 1235.47L1387.42 1141.47zM1468.83 2222.47L1550.24 2269.47L1550.24 2363.47L1468.83 2410.47L1387.42 2363.47L1387.42 2269.47zM1550.24 2645.47L1631.64 2692.47L1631.64 2786.47L1550.24 2833.47L1468.83 2786.47L1468.83 2692.47zM1468.83 3068.47L1550.24 3115.47L1550.24 3209.47L1468.83 3256.47L1387.42 3209.47L1387.42 3115.47zM1550.24 4055.47L1631.64 4102.47L1631.64 4196.47L1550.24 4243.47L1468.83 4196.47L1468.83 4102.47zM1468.83 4760.47L1550.24 4807.47L1550.24 4901.47L1468.83 4948.47L1387.42 4901.47L1387.42 4807.47zM1468.83 5324.47L1550.24 5371.47L1550.24 5465.47L1468.83 5512.47L1387.42 5465.47L1387.42 5371.47zM1550.24 5747.47L1631.64 5794.47L1631.64 5888.47L1550.24 5935.47L1468.83 5888.47L1468.83 5794.47zM1468.83 5888.47L1550.24 5935.47L1550.24 6029.47L1468.83 6076.47L1387.42 6029.47L1387.42 5935.47zM1550.24 6593.47L1631.64 6640.47L1631.64 6734.47L1550.24 6781.47L1468.83 6734.47L1468.83 6640.47zM1468.83 6734.47L1550.24 6781.47L1550.24 6875.47L1468.83 6922.47L1387.42 6875.47L1387.42 6781.47zM1550.24 7721.47L1631.64 7768.47L1631.64 7862.47L1550.24 7909.47L1468.83 7862.47L1468.83 7768.47zM1713.05 389.47L1794.46 436.47L1794.46 530.47L1713.05 577.47L1631.64 530.47L1631.64 436.47zM1713.05 671.47L1794.46 718.47L1794.46 812.47L1713.05 859.47L1631.64 812.47L1631.64 718.47zM1631.64 1094.47L1713.05 1141.47L1713.05 1235.47L1631.64 1282.47L1550.24 1235.47L1550.24 1141.47zM1713.05 1235.47L1794.46 1282.47L1794.46 1376.47L1713.05 1423.47L1631.64 1376.47L1631.64 1282.47zM1631.64 1376.47L1713.05 1423.47L1713.05 1517.47L1631.64 1564.47L1550.24 1517.47L1550.24 1423.47zM1713.05 1517.47L1794.46 1564.47L1794.46 1658.47L1713.05 1705.47L1631.64 1658.47L1631.64 1564.47zM1713.05 1799.47L1794.46 1846.47L1794.46 1940.47L1713.05 1987.47L1631.64 1940.47L1631.64 1846.47zM1713.05 2081.47L1794.46 2128.47L1794.46 2222.47L1713.05 2269.47L1631.64 2222.47L1631.64 2128.47zM1631.64 2504.47L1713.05 2551.47L1713.05 2645.47L1631.64 2692.47L1550.24 2645.47L1550.24 2551.47zM1713.05 2645.47L1794.46 2692.47L1794.46 2786.47L1713.05 2833.47L1631.64 2786.47L1631.64 2692.47zM1631.64 3350.47L1713.05 3397.47L1713.05 3491.47L1631.64 3538.47L1550.24 3491.47L1550.24 3397.47zM1631.64 3632.47L1713.05 3679.47L1713.05 3773.47L1631.64 3820.47L1550.24 3773.47L1550.24 3679.47zM1713.05 3773.47L1794.46 3820.47L1794.46 3914.47L1713.05 3961.47L1631.64 3914.47L1631.64 3820.47zM1631.64 3914.47L1713.05 3961.47L1713.05 4055.47L1631.64 4102.47L1550.24 4055.47L1550.24 3961.47zM1713.05 4901.47L1794.46 4948.47L1794.46 5042.47L1713.05 5089.47L1631.64 5042.47L1631.64 4948.47zM1713.05 5183.47L1794.46 5230.47L1794.46 5324.47L1713.05 5371.47L1631.64 5324.47L1631.64 5230.47zM1713.05 5465.47L1794.46 5512.47L1794.46 5606.47L1713.05 5653.47L1631.64 5606.47L1631.64 5512.47zM1631.64 5606.47L1713.05 5653.47L1713.05 5747.47L1631.64 5794.47L1550.24 5747.47L1550.24 5653.47zM1713.05 6029.47L1794.46 6076.47L1794.46 6170.47L1713.05 6217.47L1631.64 6170.47L1631.64 6076.47zM1631.64 6170.47L1713.05 6217.47L1713.05 6311.47L1631.64 6358.47L1550.24 6311.47L1550.24 6217.47zM1713.05 6593.47L1794.46 6640.47L1794.46 6734.47L1713.05 6781.47L1631.64 6734.47L1631.64 6640.47zM1713.05 7439.47L1794.46 7486.47L1794.46 7580.47L1713.05 7627.47L1631.64 7580.47L1631.64 7486.47zM1713.05 7721.47L1794.46 7768.47L1794.46 7862.47L1713.05 7909.47L1631.64 7862.47L1631.64 7768.47zM1631.64 7862.47L1713.05 7909.47L1713.05 8003.47L1631.64 8050.47L1550.24 8003.47L1550.24 7909.47zM1713.05 8285.47L1794.46 8332.47L1794.46 8426.47L1713.05 8473.47L1631.64 8426.47L1631.64 8332.47zM1875.87 389.47L1957.28 436.47L1957.28 530.47L1875.87 577.47L1794.46 530.47L1794.46 436.47zM1794.46 530.47L1875.87 577.47L1875.87 671.47L1794.46 718.47L1713.05 671.47L1713.05 577.47zM1794.46 812.47L1875.87 859.47L1875.87 953.47L1794.46 1000.47L1713.05 953.47L1713.05 859.47zM1875.87 1235.47L1957.28 1282.47L1957.28 1376.47L1875.87 1423.47L1794.46 1376.47L1794.46 1282.47zM1794.46 1658.47L1875.87 1705.47L1875.87 1799.47L1794.46 1846.47L1713.05 1799.47L1713.05 1705.47zM1875.87 1799.47L1957.28 1846.47L1957.28 1940.47L1875.87 1987.47L1794.46 1940.47L1794.46 1846.47zM1794.46 1940.47L1875.87 1987.47L1875.87 2081.47L1794.46 2128.47L1713.05 2081.47L1713.05 1987.47zM1875.87 2081.47L1957.28 2128.47L1957.28 2222.47L1875.87 2269.47L1794.46 2222.47L1794.46 2128.47zM1794.46 2222.47L1875.87 2269.47L1875.87 2363.47L1794.46 2410.47L1713.05 2363.47L1713.05 2269.47zM1794.46 2786.47L1875.87 2833.47L1875.87 2927.47L1794.46 2974.47L1713.05 2927.47L1713.05 2833.47zM1794.46 3068.47L1875.87 3115.47L1875.87 3209.47L1794.46 3256.47L1713.05 3209.47L1713.05 3115.47zM1794.46 3350.47L1875.87 3397.47L1875.87 3491.47L1794.46 3538.47L1713.05 3491.47L1713.05 3397.47zM1794.46 3914.47L1875.87 3961.47L1875.87 4055.47L1794.46 4102.47L1713.05 4055.47L1713.05 3961.47zM1875.87 4055.47L1957.28 4102.47L1957.28 4196.47L1875.87 4243.47L1794.46 4196.47L1794.46 4102.47zM1794.46 4478.47L1875.87 4525.47L1875.87 4619.47L1794.46 4666.47L1713.05 4619.47L1713.05 4525.47zM1875.87 4901.47L1957.28 4948.47L1957.28 5042.47L1875.87 5089.47L1794.46 5042.47L1794.46 4948.47zM1794.46 5042.47L1875.87 5089.47L1875.87 5183.47L1794.46 5230.47L1713.05 5183.47L1713.05 5089.47zM1794.46 5324.47L1875.87 5371.47L1875.87 5465.47L1794.46 5512.47L1713.05 5465.47L1713.05 5371.47zM1875.87 5747.47L1957.28 5794.47L1957.28 5888.47L1875.87 5935.47L1794.46 5888.47L1794.46 5794.47zM1794.46 6452.47L1875.87 6499.47L1875.87 6593.47L1794.46 6640.47L1713.05 6593.47L1713.05 6499.47zM1875.87 6593.47L1957.28 6640.47L1957.28 6734.47L1875.87 6781.47L1794.46 6734.47L1794.46 6640.47zM1794.46 7016.47L1875.87 7063.47L1875.87 7157.47L1794.46 7204.47L1713.05 7157.47L1713.05 7063.47zM1875.87 7157.47L1957.28 7204.47L1957.28 7298.47L1875.87 7345.47L1794.46 7298.47L1794.46 7204.47zM1875.87 8003.47L1957.28 8050.47L1957.28 8144.47L1875.87 8191.47L1794.46 8144.47L1794.46 8050.47zM1794.46 8708.47L1875.87 8755.47L1875.87 8849.47L1794.46 8896.47L1713.05 8849.47L1713.05 8755.47z" stroke="rgba(34, 34, 34, 0.48)" stroke-width="2"></path></g><defs><mask id="SvgjsMask1038"><rect width="1920" height="9000" fill="#ffffff"></rect></mask></defs></svg>